<svg width="13" height="23" viewBox="0 0 13 23" fill="none" xmlns="http://www.w3.org/2000/svg">
<path d="M12.5762 10.7986L1.77851 0.510479C1.59835 0.33873 1.35899 0.242919 1.11008 0.242919C0.861165 0.242919 0.621805 0.33873 0.441641 0.510479L0.430015 0.522104C0.342372 0.605365 0.272584 0.705585 0.224894 0.816667C0.177205 0.92775 0.152613 1.04737 0.152613 1.16826C0.152613 1.28915 0.177205 1.40877 0.224894 1.51985C0.272584 1.63094 0.342372 1.73116 0.430015 1.81442L10.598 11.5019L0.430014 21.1855C0.342371 21.2688 0.272583 21.369 0.224894 21.4801C0.177204 21.5912 0.152612 21.7108 0.152612 21.8317C0.152612 21.9526 0.177204 22.0722 0.224894 22.1833C0.272583 22.2944 0.342371 22.3946 0.430014 22.4779L0.44164 22.4895C0.621804 22.6612 0.861164 22.757 1.11008 22.757C1.35899 22.757 1.59835 22.6612 1.77851 22.4895L12.5762 12.2014C12.6712 12.1109 12.7468 12.0021 12.7984 11.8815C12.8501 11.7609 12.8767 11.6311 12.8767 11.5C12.8767 11.3688 12.8501 11.239 12.7984 11.1185C12.7468 10.9979 12.6712 10.8891 12.5762 10.7986Z" fill="white"/>
</svg>
