<svg width="210" height="51" viewBox="0 0 210 51" fill="none" xmlns="http://www.w3.org/2000/svg">
<path d="M26.5092 22.852H28.2372L24.1152 27.496L28.5792 32.5H26.7432L22.3872 27.604V32.5H20.8032V22.852H22.3872V27.532L26.5092 22.852ZM38.331 27.658C38.331 28.462 38.223 29.176 38.007 29.8C37.803 30.412 37.503 30.934 37.107 31.366C36.723 31.798 36.249 32.128 35.685 32.356C35.133 32.572 34.515 32.68 33.831 32.68C33.195 32.68 32.607 32.572 32.067 32.356C31.527 32.128 31.059 31.798 30.663 31.366C30.267 30.934 29.955 30.412 29.727 29.8C29.511 29.176 29.403 28.462 29.403 27.658C29.403 26.59 29.583 25.69 29.943 24.958C30.303 24.214 30.819 23.65 31.491 23.266C32.163 22.87 32.961 22.672 33.885 22.672C34.761 22.672 35.529 22.87 36.189 23.266C36.861 23.65 37.383 24.214 37.755 24.958C38.139 25.69 38.331 26.59 38.331 27.658ZM31.041 27.658C31.041 28.414 31.137 29.074 31.329 29.638C31.533 30.19 31.845 30.616 32.265 30.916C32.685 31.216 33.219 31.366 33.867 31.366C34.515 31.366 35.049 31.216 35.469 30.916C35.889 30.616 36.195 30.19 36.387 29.638C36.591 29.074 36.693 28.414 36.693 27.658C36.693 26.89 36.591 26.236 36.387 25.696C36.183 25.156 35.871 24.742 35.451 24.454C35.043 24.154 34.509 24.004 33.849 24.004C32.865 24.004 32.151 24.328 31.707 24.976C31.263 25.624 31.041 26.518 31.041 27.658ZM42.3894 22.852V26.866H47.6274V22.852H49.2114V32.5H47.6274V28.198H42.3894V32.5H40.8054V22.852H42.3894ZM56.1004 32.68C55.2484 32.68 54.4864 32.506 53.8144 32.158C53.1544 31.81 52.6324 31.27 52.2484 30.538C51.8764 29.806 51.6904 28.87 51.6904 27.73C51.6904 26.542 51.8884 25.576 52.2844 24.832C52.6804 24.088 53.2144 23.542 53.8864 23.194C54.5704 22.846 55.3444 22.672 56.2084 22.672C56.7004 22.672 57.1744 22.726 57.6304 22.834C58.0864 22.93 58.4584 23.05 58.7464 23.194L58.2604 24.508C57.9724 24.4 57.6364 24.298 57.2524 24.202C56.8684 24.106 56.5084 24.058 56.1724 24.058C55.5244 24.058 54.9904 24.196 54.5704 24.472C54.1504 24.748 53.8384 25.156 53.6344 25.696C53.4304 26.236 53.3284 26.908 53.3284 27.712C53.3284 28.48 53.4304 29.134 53.6344 29.674C53.8384 30.214 54.1444 30.622 54.5524 30.898C54.9604 31.174 55.4704 31.312 56.0824 31.312C56.6104 31.312 57.0724 31.258 57.4684 31.15C57.8764 31.042 58.2484 30.91 58.5844 30.754V32.158C58.2604 32.326 57.9004 32.452 57.5044 32.536C57.1204 32.632 56.6524 32.68 56.1004 32.68ZM59.3308 22.852H61.0228L63.1108 28.342C63.2308 28.666 63.3388 28.978 63.4348 29.278C63.5428 29.578 63.6388 29.872 63.7228 30.16C63.8068 30.436 63.8728 30.706 63.9208 30.97H63.9928C64.0648 30.67 64.1788 30.28 64.3348 29.8C64.4908 29.308 64.6528 28.816 64.8208 28.324L66.7828 22.852H68.4928L64.3348 33.832C64.1068 34.432 63.8368 34.954 63.5248 35.398C63.2248 35.854 62.8528 36.202 62.4088 36.442C61.9768 36.694 61.4488 36.82 60.8248 36.82C60.5368 36.82 60.2848 36.802 60.0688 36.766C59.8528 36.742 59.6668 36.712 59.5108 36.676V35.416C59.6428 35.44 59.7988 35.464 59.9788 35.488C60.1708 35.512 60.3688 35.524 60.5728 35.524C60.9448 35.524 61.2628 35.452 61.5268 35.308C61.8028 35.176 62.0368 34.978 62.2288 34.714C62.4208 34.462 62.5828 34.162 62.7148 33.814L63.2188 32.536L59.3308 22.852ZM76.975 32.5H75.373V24.166H72.529C72.409 25.69 72.259 26.992 72.079 28.072C71.899 29.14 71.671 30.01 71.395 30.682C71.119 31.354 70.789 31.846 70.405 32.158C70.021 32.47 69.571 32.626 69.055 32.626C68.899 32.626 68.743 32.614 68.587 32.59C68.443 32.578 68.323 32.548 68.227 32.5V31.312C68.299 31.336 68.377 31.354 68.461 31.366C68.545 31.378 68.629 31.384 68.713 31.384C68.977 31.384 69.217 31.276 69.433 31.06C69.649 30.844 69.841 30.514 70.009 30.07C70.189 29.626 70.351 29.068 70.495 28.396C70.639 27.712 70.765 26.908 70.873 25.984C70.981 25.06 71.077 24.016 71.161 22.852H76.975V32.5ZM84.4473 26.812C85.2873 26.812 85.9833 26.914 86.5353 27.118C87.0873 27.322 87.5013 27.628 87.7773 28.036C88.0653 28.432 88.2093 28.936 88.2093 29.548C88.2093 30.148 88.0713 30.67 87.7953 31.114C87.5313 31.558 87.1173 31.9 86.5533 32.14C85.9893 32.38 85.2633 32.5 84.3753 32.5H80.0013V22.852H81.5853V26.812H84.4473ZM86.6253 29.638C86.6253 29.05 86.4153 28.654 85.9953 28.45C85.5873 28.234 85.0113 28.126 84.2673 28.126H81.5853V31.222H84.3033C84.9753 31.222 85.5273 31.102 85.9593 30.862C86.4033 30.622 86.6253 30.214 86.6253 29.638ZM96.4163 24.184H93.2663V32.5H91.7003V24.184H88.5863V22.852H96.4163V24.184ZM101.935 22.69C103.111 22.69 103.981 22.948 104.545 23.464C105.109 23.98 105.391 24.802 105.391 25.93V32.5H104.239L103.933 31.132H103.861C103.585 31.48 103.297 31.774 102.997 32.014C102.709 32.242 102.373 32.41 101.989 32.518C101.617 32.626 101.161 32.68 100.621 32.68C100.045 32.68 99.5228 32.578 99.0548 32.374C98.5988 32.17 98.2388 31.858 97.9748 31.438C97.7108 31.006 97.5788 30.466 97.5788 29.818C97.5788 28.858 97.9568 28.12 98.7128 27.604C99.4688 27.076 100.633 26.788 102.205 26.74L103.843 26.686V26.11C103.843 25.306 103.669 24.748 103.321 24.436C102.973 24.124 102.481 23.968 101.845 23.968C101.341 23.968 100.861 24.046 100.405 24.202C99.9488 24.346 99.5228 24.514 99.1268 24.706L98.6408 23.518C99.0608 23.29 99.5588 23.098 100.135 22.942C100.711 22.774 101.311 22.69 101.935 22.69ZM102.403 27.838C101.203 27.886 100.369 28.078 99.9008 28.414C99.4448 28.75 99.2168 29.224 99.2168 29.836C99.2168 30.376 99.3788 30.772 99.7028 31.024C100.039 31.276 100.465 31.402 100.981 31.402C101.797 31.402 102.475 31.18 103.015 30.736C103.555 30.28 103.825 29.584 103.825 28.648V27.784L102.403 27.838ZM117.857 35.848H116.309V32.5H108.335V22.852H109.919V31.168H114.905V22.852H116.489V31.186H117.857V35.848ZM121.166 28.738C121.166 28.846 121.16 29.002 121.148 29.206C121.148 29.398 121.142 29.608 121.13 29.836C121.118 30.052 121.106 30.262 121.094 30.466C121.082 30.658 121.07 30.814 121.058 30.934L126.224 22.852H128.168V32.5H126.692V26.812C126.692 26.62 126.692 26.368 126.692 26.056C126.704 25.744 126.716 25.438 126.728 25.138C126.74 24.826 126.752 24.592 126.764 24.436L121.634 32.5H119.672V22.852H121.166V28.738ZM131.796 32.5H129.96L132.714 28.45C132.342 28.354 131.982 28.204 131.634 28C131.286 27.784 131.004 27.49 130.788 27.118C130.572 26.734 130.464 26.26 130.464 25.696C130.464 24.772 130.776 24.07 131.4 23.59C132.024 23.098 132.852 22.852 133.884 22.852H138.204V32.5H136.62V28.666H134.28L131.796 32.5ZM131.994 25.714C131.994 26.266 132.198 26.68 132.606 26.956C133.026 27.22 133.608 27.352 134.352 27.352H136.62V24.166H134.046C133.314 24.166 132.786 24.31 132.462 24.598C132.15 24.886 131.994 25.258 131.994 25.714Z" fill="black" fill-opacity="0.91"/>
<rect x="0.5" y="0.5" width="209" height="50" stroke="black"/>
</svg>
