<svg width="425" height="191" viewBox="0 0 425 191" fill="none" xmlns="http://www.w3.org/2000/svg">
<path d="M27.5484 0.23624C12.4462 0.23624 3.10673 9.64198 3.10673 23.8168C3.10673 37.9917 12.4462 47.3974 27.4822 47.3974C39.6037 47.3974 48.2146 41.3698 48.2146 33.0239H43.1805C43.1805 40.1113 36.5567 45.3441 27.4159 45.3441C15.5594 45.3441 8.27327 36.7332 8.27327 23.8168C8.27327 10.9005 15.5594 2.28961 27.4159 2.28961C36.4243 2.28961 42.9818 7.32366 42.9818 14.1461H48.0158C48.0158 6.06515 39.4049 0.23624 27.5484 0.23624ZM94.9348 3.08446V0.633665H52.874V3.08446H71.4205V47H76.3883V3.08446H94.9348ZM120.703 35.0772C117.524 40.8399 114.212 43.0257 106.793 43.0257V47.3974C114.676 47.3974 118.849 44.4167 123.088 36.3357L142.297 0.633665H139.316L123.419 30.1094L104.74 0.633665H99.1761L120.703 35.0772ZM141.154 57.598H144.333L145.79 47H186.791L188.249 57.598H191.428V44.5492H184.142V0.633665H154.865L153.871 17.6567C152.944 33.0901 150.228 42.827 146.519 44.5492H141.154V57.598ZM149.831 44.5492C153.805 40.7074 155.66 31.8978 156.587 17.3918L157.514 3.08446H179.108V44.5492H149.831ZM204.579 47L235.843 5.40277V47H240.878V0.633665H235.843L204.579 42.2971V0.633665H199.545V47H204.579ZM251.102 47H256.666L269.582 26.9962H282.499V47H287.533V0.633665H269.317C258.653 0.633665 251.499 5.99891 251.499 14.0137C251.499 20.7699 256.533 25.3403 264.482 26.5988L251.102 47ZM256.666 14.0137C256.666 7.45614 261.899 3.08446 269.781 3.08446H282.499V24.5454H269.781C261.899 24.5454 256.666 20.6374 256.666 14.0137ZM0.722178 129.598H3.90158L5.35881 119H46.3599L47.8171 129.598H50.9965V116.549H43.7104V72.6337H14.4334L13.4398 89.6567C12.5125 105.09 9.79673 114.827 6.08743 116.549H0.722178V129.598ZM9.39931 116.549C13.3736 112.707 15.2282 103.898 16.1555 89.3918L17.0829 75.0845H38.6763V116.549H9.39931ZM64.1478 119L95.412 77.4028V119H100.446V72.6337H95.412L64.1478 114.297V72.6337H59.1137V119H64.1478ZM111.068 105.819C111.068 113.701 118.089 119.397 129.548 119.397C140.345 119.397 148.227 114.098 148.227 106.282C148.227 100.785 144.253 96.5454 137.563 94.8895C143.657 93.2998 147.234 89.3918 147.234 84.3577C147.234 77.1378 139.815 72.2362 129.548 72.2362C118.288 72.2362 111.267 77.734 111.267 85.2851H116.301C116.301 78.9925 121.268 74.2896 129.349 74.2896C136.702 74.2896 142.067 78.3301 142.067 84.3577C142.067 89.8554 137.629 93.6972 130.144 93.6972H123.719V96.148H130.078C138.225 96.148 143.061 100.321 143.061 106.349C143.061 112.906 137.43 117.344 129.548 117.344C121.136 117.344 116.036 112.442 116.036 105.819H111.068ZM155.779 119L162.138 105.223H186.911L193.27 119H198.503L177.174 72.6337H174.26L152.865 119H155.779ZM174.525 78.3963L185.984 103.169H163.065L174.525 78.3963ZM206.79 72.6337V119H211.824L243.088 77.4028V119H248.122V72.6337H243.088L211.824 114.297V72.6337H206.79ZM215.931 58.7238C215.931 64.354 220.369 67.8646 227.456 67.8646C234.477 67.8646 238.915 64.354 238.915 58.7238H235.272C235.272 62.963 232.225 65.6125 227.456 65.6125C222.621 65.6125 219.64 62.963 219.64 58.7238H215.931ZM266.03 119V96.4792H297.162V119H302.13V72.6337H297.162V94.0284H266.03V72.6337H260.996V119H266.03ZM313.352 119L319.711 105.223H344.484L350.843 119H356.076L334.747 72.6337H331.833L310.438 119H313.352ZM332.098 78.3963L343.557 103.169H320.638L332.098 78.3963ZM10.4591 191L41.7233 149.403V191H46.7573V144.634H41.7233L10.4591 186.297V144.634H5.42505V191H10.4591ZM64.6653 191V168.479H95.797V191H100.765V144.634H95.797V166.028H64.6653V144.634H59.6312V191H64.6653ZM151.664 147.084V144.634H109.603V147.084H128.149V191H133.117V147.084H151.664ZM195.118 191V188.549H165.509V168.479H191.342V166.028H165.509V147.084H195.118V144.634H160.475V191H195.118ZM205.173 191H210.207V172.255H223.388C234.052 172.255 241.206 166.757 241.206 158.411C241.206 150.131 234.052 144.634 223.322 144.634H205.173V191ZM210.207 169.804V147.084H222.925C230.807 147.084 236.04 151.655 236.04 158.411C236.04 165.234 230.807 169.804 222.925 169.804H210.207ZM250.582 144.634V191H268.731C279.461 191 286.615 185.635 286.615 177.62C286.615 169.605 279.461 164.24 268.797 164.24H255.616V144.634H250.582ZM268.334 166.691C276.216 166.691 281.449 171.062 281.449 177.62C281.449 184.178 276.216 188.549 268.334 188.549H255.616V166.691H268.334ZM331.151 191V188.549H301.542V168.479H327.375V166.028H301.542V147.084H331.151V144.634H296.508V191H331.151ZM341.206 191H346.24V172.255H359.421C370.085 172.255 377.239 166.757 377.239 158.411C377.239 150.131 370.085 144.634 359.355 144.634H341.206V191ZM346.24 169.804V147.084H358.957C366.84 147.084 372.073 151.655 372.073 158.411C372.073 165.234 366.84 169.804 358.957 169.804H346.24ZM381.854 191L388.213 177.223H412.986L419.344 191H424.577L403.249 144.634H400.334L378.939 191H381.854ZM400.599 150.396L412.058 175.169H389.14L400.599 150.396Z" fill="black"/>
</svg>
