<svg width="231" height="100" viewBox="0 0 231 100" fill="none" xmlns="http://www.w3.org/2000/svg">
<g clip-path="url(#clip0_103_380)">
<path d="M49.0501 23.5752C53.9044 27.9681 56.6928 33.7962 57.4106 41.2255C57.9004 46.257 57.1334 51.3317 55.179 55.9918C53.1624 60.7976 49.8197 64.9262 45.5439 67.8925C41.0852 71.0857 35.4209 72.8438 28.5834 73.0837C23.4486 73.2683 18.3599 72.0532 13.8592 69.5675C9.24922 67.0182 5.52616 63.1171 3.18871 58.3867C-0.078226 51.4419 -0.791431 44.8109 0.888051 38.5814C2.56753 32.3519 6.14276 27.2437 11.4711 23.1691C16.7994 19.0945 23.1768 17.1011 30.5804 17.1011C37.9839 17.1011 44.1911 19.2607 49.0501 23.5752ZM48.9028 31.0829C46.1371 26.7155 42.0682 23.3343 37.2753 21.4202C32.4163 19.5006 26.9223 19.3468 20.7934 20.9588C15.1383 22.8046 10.9971 26.067 8.53084 30.7783C5.99023 35.61 4.88364 41.0707 5.34213 46.5136C6.05994 53.3031 8.44956 58.6528 12.511 62.5628C16.5724 66.4727 21.1875 68.863 26.3564 69.7336C31.5328 70.6934 36.309 70.1305 40.533 68.137C44.0346 66.4574 46.9012 63.7441 49.2111 60.1494C51.521 56.5547 52.7173 52.0833 52.952 46.7352C53.044 40.7456 51.6636 35.5543 48.9028 31.0829Z" fill="black"/>
<path d="M58.9751 17.7426H79.2715C82.917 17.7276 86.4872 18.7831 89.5417 20.7789C92.6475 22.8554 94.3224 26.0486 94.4789 30.2847C94.4789 34.3546 93.5264 37.391 91.6951 39.306C89.8545 41.304 86.5186 42.6607 81.7378 43.459C84.4573 43.5288 87.1473 44.0415 89.7027 44.9771C92.2218 45.9324 94.4841 47.4634 96.3102 49.4486C98.0633 51.4466 98.9421 54.063 98.9421 57.1962C98.9421 62.0691 97.189 65.9022 93.6828 68.6955C92.9776 69.2667 92.2049 69.7487 91.3822 70.1306C89.4963 71.1291 87.4468 71.7793 85.3315 72.0502C83.1936 72.3065 81.0427 72.439 78.8896 72.447H58.9751V71.9856C60.3015 71.9663 61.5966 71.5782 62.716 70.8643C63.7513 70.2275 64.2298 69.1061 64.2298 67.5095V22.6939C64.2298 21.0973 63.7697 19.9806 62.716 19.2607C61.5812 18.6013 60.2862 18.2706 58.9751 18.3056V17.7426ZM69.4845 42.3423H75.7745C79.6764 42.4207 82.9434 41.4609 85.4925 39.4675C87.9588 37.4694 89.2334 34.5946 89.3116 30.76C88.9159 23.7322 85.014 20.1467 77.6887 20.0591H69.4845V42.3423ZM91.2349 49.7577C89.5171 47.8145 87.2825 46.4027 84.7931 45.6878C82.0563 44.8644 79.2058 44.4859 76.3497 44.5665H69.4845V70.1213H80.5553C84.6136 70.0429 87.8024 68.8478 90.1904 66.6097C92.4911 64.3717 93.692 61.4185 93.692 57.8423C93.692 54.3999 92.896 51.765 91.2349 49.7577Z" fill="black"/>
<path d="M230.517 59.7527C229.721 63.0243 228.446 65.5023 226.781 67.3389C225.027 69.1847 222.474 70.1352 219.05 70.1352H194.843L230.756 20.1376V17.7473H221.043C213 17.7473 205.035 17.7473 197.07 17.8257C195.598 17.8446 194.129 17.6898 192.694 17.3643L189.588 30.377L190.048 30.4555C190.84 27.2623 192.119 24.7105 193.867 22.8693C195.616 21.0281 198.165 20.1514 201.515 20.1514H224.448L189.243 69.0462C188.75 68.4957 188.344 67.8734 188.037 67.2004L168.463 17.7473H165.831C163.761 23.1739 161.69 28.6097 159.541 34.0363C157.719 38.7431 155.893 43.4406 154.061 48.1289H125.105C125.237 48.0131 125.395 47.9308 125.565 47.8889C128.883 47.0122 131.496 45.5817 133.424 43.5421C136.097 40.9014 137.634 37.318 137.708 33.5564C137.836 30.7236 137.056 27.9242 135.481 25.5688C133.884 23.2616 131.501 21.3373 128.312 19.9022C125.048 18.4687 121.061 17.7503 116.349 17.7473H100.438V18.301C101.749 18.2677 103.044 18.6 104.178 19.2608C105.214 19.9807 105.775 21.1066 105.775 22.6986V67.4958C105.775 69.097 105.214 70.2137 104.178 70.8505C103.06 71.5668 101.764 71.9537 100.438 71.9672V72.4286H116.206V71.9672C114.9 71.9448 113.625 71.5581 112.525 70.8505C111.49 70.2137 110.938 69.097 110.938 67.5742V50.8099C110.938 50.6623 110.967 50.5161 111.023 50.3797C111.08 50.2434 111.163 50.1195 111.267 50.0153C111.371 49.9112 111.495 49.8287 111.631 49.7726C111.767 49.7165 111.913 49.688 112.06 49.6886H115.953C117.22 49.6663 118.476 49.9214 119.634 50.4361L119.74 50.4823C120.288 50.7438 120.805 51.0658 121.281 51.4421C122.796 52.7402 124.088 54.2788 125.105 55.9965C126.14 57.8423 127.176 59.8311 128.133 61.8292C128.538 62.6829 128.97 63.5181 129.407 64.3533C130.622 66.6606 132.237 69.0324 134.381 70.5552C136.194 71.7747 138.323 72.4371 140.506 72.4609C141.044 72.4609 146.768 72.4609 146.768 72.4609H154.811L154.733 71.9995C153.171 71.9815 151.648 71.5103 150.348 70.6428C149.073 69.8445 148.756 68.4879 149.391 66.6513L155.732 50.5238H158.557L175.476 50.4823V50.5238L182.35 67.4589C182.514 67.8818 182.563 68.3407 182.493 68.7889C182.423 69.2371 182.235 69.6586 181.95 70.0107C181.305 70.7462 180.44 71.2515 179.484 71.4504C178.577 71.7383 177.642 71.9256 176.695 72.0087V72.4701H223.509C224.982 72.3945 226.459 72.5313 227.894 72.8762L231 59.8542L230.517 59.7527ZM116.777 47.3767H112.093C111.795 47.3767 111.509 47.2581 111.299 47.047C111.088 46.8358 110.97 46.5494 110.97 46.2508V21.1804C110.97 21.0328 110.999 20.8866 111.055 20.7502C111.112 20.6139 111.195 20.4901 111.299 20.3859C111.403 20.2817 111.527 20.1992 111.663 20.1431C111.8 20.0871 111.945 20.0585 112.093 20.0591H116.777C122.275 20.2991 126.338 21.4942 128.883 23.8153C131.427 26.1364 132.628 29.3249 132.467 33.3949C132.389 37.391 131.197 40.6627 128.786 43.2237C126.375 45.7847 122.432 47.2106 116.777 47.3767ZM146.566 67.2604C146.024 68.675 145.011 69.8585 143.699 70.6105C143.401 70.7811 143.094 70.9352 142.779 71.072C142.448 70.9289 142.121 70.7674 141.794 70.6105C140.24 69.7626 138.861 68.6256 137.731 67.2604C135.914 64.9162 134.37 62.3709 133.13 59.6743C132.162 57.6496 131.046 55.6999 129.789 53.8416C128.897 52.4736 127.707 51.3254 126.311 50.4823H153.173C150.98 56.0658 148.777 61.6585 146.566 67.2604ZM156.574 48.1243L165.523 24.5305L174.698 48.1289L156.574 48.1243Z" fill="black"/>
<path d="M60.282 96.8668V86.4104H61.2943V96.8668H60.282Z" fill="black"/>
<path d="M63.9124 96.8668V85.9905L71.822 94.7257V86.4196H72.8297V97.2867L64.9246 88.5515V96.8575L63.9124 96.8668Z" fill="black"/>
<path d="M77.0907 96.8668V87.2456H74.3069V86.4104H80.8868V87.2456H78.126V96.8668H77.0907Z" fill="black"/>
<path d="M82.3638 96.8668V86.4104H87.9498V87.2456H83.3807V90.5911H87.7841V91.4263H83.3807V96.0408H87.9498V96.876L82.3638 96.8668Z" fill="black"/>
<path d="M90.094 96.8668V86.4104H92.8778C93.5946 86.4119 94.2958 86.6201 94.8978 87.0103C95.5328 87.4117 95.8456 88.1547 95.8456 89.2344C95.8457 89.669 95.7531 90.0985 95.5742 90.4942C95.3503 90.9346 94.9969 91.2954 94.5619 91.5279C93.9454 91.8532 93.2614 92.0286 92.5649 92.04L96.246 96.8668H95.0588L91.479 92.0539H91.0971V96.8668H90.094ZM91.1109 91.2187H92.1554C93.9223 91.2187 94.8058 90.5573 94.8058 89.2344C94.8058 88.4223 94.5849 87.8917 94.134 87.6332C93.5976 87.3548 92.9981 87.2212 92.3947 87.2456H91.1155L91.1109 91.2187Z" fill="black"/>
<path d="M97.7781 96.8668V86.4104H98.795V96.8668H97.7781Z" fill="black"/>
<path d="M100.935 91.6339C100.932 90.9091 101.066 90.1904 101.33 89.5158C101.588 88.8445 101.981 88.2337 102.484 87.7216C102.988 87.2095 103.591 86.8071 104.257 86.5395C104.989 86.2478 105.77 86.102 106.558 86.1104C107.345 86.1001 108.127 86.246 108.858 86.5395C109.532 86.8138 110.143 87.2237 110.653 87.7439C111.151 88.2504 111.54 88.8533 111.798 89.5158C112.063 90.1903 112.197 90.9091 112.194 91.6339C112.198 92.3606 112.062 93.0813 111.794 93.7565C111.534 94.4179 111.144 95.0204 110.648 95.5285C110.137 96.0472 109.527 96.4568 108.854 96.7328C107.373 97.3062 105.733 97.3062 104.252 96.7328C103.579 96.4618 102.97 96.0532 102.462 95.5331C101.967 95.0238 101.579 94.4195 101.321 93.7565C101.061 93.0795 100.93 92.3595 100.935 91.6339ZM102.011 91.6339C102.007 92.2387 102.113 92.8394 102.324 93.4058C102.533 93.9615 102.845 94.472 103.245 94.9101C103.651 95.3562 104.146 95.7115 104.699 95.953C105.287 96.2076 105.922 96.335 106.562 96.3268C107.206 96.3349 107.844 96.2075 108.435 95.953C108.985 95.716 109.479 95.3654 109.884 94.924C110.286 94.4856 110.598 93.9731 110.805 93.415C111.234 92.2666 111.234 91.0011 110.805 89.8527C110.598 89.296 110.286 88.7851 109.884 88.3484C109.48 87.9059 108.985 87.5551 108.435 87.3194C107.843 87.0656 107.205 86.9383 106.562 86.9456C105.92 86.9371 105.283 87.0661 104.694 87.3239C104.144 87.5627 103.65 87.9149 103.245 88.3576C102.843 88.794 102.53 89.305 102.324 89.8619C102.114 90.4286 102.008 91.0291 102.011 91.6339Z" fill="black"/>
<path d="M114.338 96.8668V86.4104H117.122C117.839 86.4119 118.54 86.6201 119.142 87.0103C119.777 87.4117 120.09 88.1547 120.09 89.2344C120.091 89.6695 119.997 90.0995 119.814 90.4942C119.593 90.9353 119.241 91.2966 118.806 91.5279C118.19 91.8532 117.506 92.0286 116.809 92.04L120.49 96.8668H119.303L115.723 92.0539H115.341V96.8668H114.338ZM115.355 91.2187H116.395C118.162 91.2187 119.046 90.5573 119.046 89.2344C119.046 88.4223 118.82 87.8917 118.374 87.6332C117.837 87.3548 117.238 87.2212 116.634 87.2456H115.355V91.2187Z" fill="black"/>
<path d="M125.662 99.9999L131.29 85.8843H132.127L126.495 99.9999H125.662Z" fill="black"/>
<path d="M138.679 96.8668V86.4105H141.27C142.377 86.3721 143.474 86.6302 144.449 87.158C145.258 87.6062 145.918 88.2814 146.35 89.1007C146.756 89.8828 146.966 90.7523 146.962 91.634C146.967 92.5278 146.757 93.4096 146.35 94.2043C145.922 95.0199 145.262 95.6896 144.454 96.1285C143.475 96.6488 142.377 96.9033 141.27 96.8668H138.679ZM139.691 96.0316H141.164C142.124 96.072 143.077 95.8537 143.925 95.3994C144.585 95.0295 145.113 94.4615 145.434 93.7752C145.741 93.1035 145.898 92.3728 145.894 91.634C145.907 90.9848 145.783 90.3401 145.531 89.7421C145.302 89.2097 144.956 88.7364 144.518 88.3578C144.074 87.9856 143.564 87.7021 143.014 87.5226C142.418 87.3339 141.797 87.2404 141.173 87.2457H139.701L139.691 96.0316Z" fill="black"/>
<path d="M149.101 96.8668V86.4104H154.687V87.2456H150.132V90.5911H154.54V91.4263H150.132V96.0408H154.701V96.876L149.101 96.8668Z" fill="black"/>
<path d="M162.123 87.6931L161.313 88.1545C161.166 87.7215 160.853 87.3648 160.444 87.1624C160.128 87.0177 159.787 86.9376 159.441 86.9271C159.191 86.9059 158.94 86.9359 158.703 87.0152C158.466 87.0945 158.247 87.2216 158.06 87.3885C157.913 87.5345 157.797 87.7085 157.717 87.9002C157.638 88.092 157.599 88.2977 157.6 88.5052C157.592 88.8619 157.713 89.2094 157.94 89.4835C158.151 89.7389 158.407 89.9532 158.695 90.1157C158.967 90.2726 159.395 90.4802 159.97 90.7433C160.459 90.9676 160.932 91.225 161.387 91.5139C161.758 91.7492 162.073 92.0644 162.307 92.4368C162.568 92.8787 162.697 93.3863 162.68 93.8995C162.681 94.4411 162.547 94.9742 162.289 95.45C162.019 95.9467 161.618 96.3587 161.129 96.6405C160.581 96.9562 159.957 97.1158 159.325 97.102C158.524 97.1495 157.735 96.8869 157.121 96.3683C156.623 95.9222 156.227 95.3727 155.962 94.7578L156.914 94.2964C157.092 94.8208 157.392 95.2952 157.789 95.6807C158.005 95.887 158.261 96.0473 158.541 96.152C158.821 96.2567 159.119 96.3036 159.418 96.2898C159.803 96.2936 160.183 96.1983 160.522 96.013C160.856 95.8251 161.13 95.5469 161.313 95.21C161.516 94.8368 161.617 94.4167 161.608 93.9918C161.615 93.7142 161.567 93.438 161.465 93.1797C161.366 92.9516 161.222 92.746 161.042 92.5752C160.831 92.3837 160.599 92.2166 160.352 92.0768C160.08 91.9199 159.721 91.7354 159.27 91.5277C158.534 91.2029 157.851 90.7672 157.246 90.2356C157.017 90.0177 156.838 89.7537 156.719 89.4609C156.6 89.1682 156.544 88.8534 156.556 88.5375C156.563 88.1706 156.641 87.8086 156.786 87.4716C156.968 87.0637 157.272 86.7221 157.655 86.4933C158.19 86.1872 158.802 86.0414 159.418 86.0734C160.715 86.1103 161.635 86.641 162.123 87.6931Z" fill="black"/>
<path d="M164.589 96.8668V86.4104H165.606V96.8668H164.589Z" fill="black"/>
<path d="M173.392 91.7863H178.2C178.192 92.4103 178.104 93.0307 177.938 93.6321C177.769 94.257 177.487 94.8452 177.105 95.3671C176.697 95.9161 176.162 96.3565 175.545 96.6499C174.805 96.9955 173.995 97.163 173.18 97.1391C172.151 97.1665 171.133 96.9146 170.235 96.41C169.432 95.9445 168.782 95.2552 168.362 94.4258C167.933 93.5672 167.715 92.6177 167.727 91.6571C167.715 90.6824 167.926 89.7179 168.344 88.8377C168.74 88.0086 169.364 87.3105 170.143 86.8258C170.974 86.3189 171.932 86.0611 172.904 86.0828C173.809 86.0741 174.703 86.2813 175.513 86.6873C176.321 87.1043 177.007 87.7244 177.505 88.487L176.727 89.0545C176.327 88.3955 175.763 87.8521 175.09 87.4775C174.418 87.103 173.659 86.9102 172.89 86.9181C172.28 86.909 171.677 87.0433 171.128 87.3103C170.624 87.5643 170.184 87.9286 169.839 88.3762C169.49 88.8328 169.225 89.3486 169.057 89.899C168.88 90.4682 168.79 91.0609 168.79 91.6571C168.781 92.3249 168.896 92.9884 169.131 93.6136C169.323 94.1514 169.628 94.6416 170.025 95.0515C170.421 95.4614 170.901 95.7814 171.431 95.9901C171.968 96.1979 172.54 96.3027 173.115 96.2992C173.818 96.316 174.514 96.1574 175.14 95.8378C175.73 95.5294 176.225 95.0651 176.571 94.495C176.915 93.9295 177.097 93.2795 177.096 92.6169H173.341L173.392 91.7863Z" fill="black"/>
<path d="M180.358 96.8668V85.9905L188.268 94.7257V86.4196H189.284V97.2867L181.375 88.5469V96.8529L180.358 96.8668Z" fill="black"/>
<path d="M119.763 50.4822H119.657V50.436L119.763 50.4822Z" fill="black"/>
<path d="M175.526 50.4822H158.594L175.513 50.4407L175.526 50.4822Z" fill="black"/>
<path d="M16.9926 0L28.1278 11.1162L28.0081 11.2593L15.1152 2.25647L16.9926 0Z" fill="black"/>
</g>
<defs>
<clipPath id="clip0_103_380">
<rect width="231" height="100" fill="white"/>
</clipPath>
</defs>
</svg>
