<svg width="353" height="272" viewBox="0 0 353 272" fill="none" xmlns="http://www.w3.org/2000/svg">
<path d="M74.9552 155.191C82.3734 161.905 86.6345 170.813 87.7314 182.168C88.4797 189.859 87.3078 197.615 84.3211 204.737C81.2395 212.083 76.1314 218.393 69.5973 222.927C62.7838 227.807 54.1281 230.494 43.6793 230.861C35.8326 231.143 28.0565 229.286 21.1787 225.487C14.134 221.59 8.44468 215.628 4.87273 208.398C-0.119598 197.783 -1.20947 187.648 1.35701 178.127C3.92349 168.606 9.38693 160.798 17.5293 154.57C25.6718 148.343 35.4174 145.296 46.731 145.296C58.0446 145.296 67.53 148.597 74.9552 155.191ZM74.7302 166.666C70.5038 159.991 64.286 154.823 56.9617 151.897C49.5365 148.963 41.141 148.728 31.7751 151.192C23.1334 154.013 16.8051 159 13.0362 166.201C9.15384 173.585 7.46282 181.932 8.16346 190.251C9.26036 200.628 12.912 208.804 19.1185 214.781C25.3249 220.757 32.3774 224.41 40.2761 225.741C48.1865 227.208 55.4851 226.347 61.94 223.3C67.2909 220.733 71.6715 216.586 75.2013 211.092C78.7311 205.598 80.5593 198.764 80.9179 190.589C81.0585 181.435 78.9491 173.5 74.7302 166.666Z" fill="black"/>
<path d="M90.1221 146.276H121.138C126.709 146.253 132.164 147.866 136.832 150.917C141.578 154.091 144.138 158.971 144.377 165.446C144.377 171.666 142.921 176.307 140.123 179.234C137.31 182.288 132.212 184.361 124.907 185.582C129.062 185.688 133.173 186.472 137.078 187.902C140.928 189.362 144.385 191.702 147.175 194.736C149.854 197.79 151.197 201.789 151.197 206.578C151.197 214.026 148.518 219.884 143.16 224.154C142.083 225.027 140.902 225.763 139.645 226.347C136.763 227.873 133.631 228.867 130.398 229.281C127.131 229.673 123.844 229.875 120.554 229.888H90.1221V229.182C92.149 229.153 94.128 228.56 95.8386 227.468C97.4207 226.495 98.152 224.781 98.152 222.341V153.844C98.152 151.404 97.4488 149.697 95.8386 148.596C94.1045 147.589 92.1256 147.083 90.1221 147.137V146.276ZM106.182 183.875H115.794C121.757 183.995 126.749 182.528 130.644 179.481C134.413 176.427 136.361 172.033 136.48 166.172C135.876 155.431 129.913 149.951 118.719 149.817H106.182V183.875ZM139.42 195.209C136.794 192.239 133.38 190.081 129.576 188.988C125.393 187.73 121.037 187.151 116.673 187.274H106.182V226.333H123.1C129.301 226.213 134.174 224.386 137.823 220.966C141.339 217.545 143.174 213.031 143.174 207.565C143.174 202.304 141.958 198.277 139.42 195.209Z" fill="black"/>
<path d="M352.262 210.485C351.045 215.486 349.097 219.273 346.552 222.08C343.873 224.901 339.971 226.354 334.739 226.354H297.747L352.627 149.937V146.283H337.784C325.493 146.283 313.321 146.283 301.15 146.403C298.901 146.432 296.657 146.195 294.463 145.698L289.717 165.587L290.42 165.707C291.629 160.826 293.584 156.926 296.256 154.112C298.928 151.298 302.823 149.958 307.942 149.958H342.987L289.189 224.69C288.436 223.848 287.815 222.897 287.347 221.868L257.435 146.283H253.413C250.249 154.577 247.085 162.886 243.801 171.18C241.017 178.374 238.225 185.553 235.427 192.719H191.178C191.38 192.542 191.621 192.416 191.881 192.352C196.951 191.012 200.945 188.826 203.891 185.709C207.974 181.672 210.324 176.195 210.437 170.446C210.633 166.116 209.44 161.838 207.034 158.238C204.594 154.711 200.952 151.77 196.079 149.577C191.091 147.386 184.997 146.288 177.797 146.283H153.482V147.13C155.487 147.079 157.465 147.586 159.199 148.596C160.781 149.697 161.639 151.418 161.639 153.851V222.32C161.639 224.767 160.781 226.474 159.199 227.447C157.49 228.542 155.51 229.134 153.482 229.154V229.859H177.579V229.154C175.583 229.12 173.635 228.529 171.954 227.447C170.372 226.474 169.528 224.767 169.528 222.44V196.817C169.528 196.591 169.573 196.368 169.659 196.159C169.745 195.951 169.872 195.762 170.031 195.602C170.191 195.443 170.38 195.317 170.588 195.231C170.796 195.146 171.019 195.102 171.244 195.103H177.192C179.128 195.069 181.048 195.459 182.818 196.245L182.979 196.316C183.816 196.716 184.606 197.208 185.335 197.783C187.649 199.767 189.623 202.119 191.178 204.744C192.76 207.565 194.342 210.605 195.805 213.659C196.424 214.964 197.084 216.24 197.752 217.517C199.609 221.043 202.077 224.668 205.353 226.996C208.124 228.86 211.377 229.872 214.712 229.909C215.535 229.909 224.282 229.909 224.282 229.909H236.573L236.454 229.203C234.067 229.176 231.74 228.456 229.753 227.13C227.805 225.91 227.32 223.836 228.29 221.029L237.979 196.379H242.297L268.151 196.316V196.379L278.656 222.263C278.907 222.91 278.982 223.611 278.874 224.296C278.767 224.981 278.481 225.626 278.045 226.164C277.06 227.288 275.737 228.06 274.276 228.364C272.891 228.804 271.462 229.09 270.015 229.218V229.923H341.553C343.804 229.807 346.061 230.016 348.254 230.543L353 210.64L352.262 210.485ZM178.451 191.569H171.293C170.838 191.569 170.402 191.388 170.08 191.065C169.758 190.743 169.577 190.305 169.577 189.849V151.53C169.577 151.305 169.622 151.081 169.708 150.873C169.794 150.665 169.921 150.475 170.08 150.316C170.24 150.157 170.429 150.031 170.637 149.945C170.845 149.859 171.068 149.816 171.293 149.817H178.451C186.854 150.183 193.062 152.01 196.951 155.558C200.839 159.105 202.674 163.979 202.428 170.199C202.309 176.307 200.488 181.308 196.803 185.222C193.119 189.136 187.093 191.316 178.451 191.569ZM223.973 221.96C223.144 224.122 221.597 225.931 219.592 227.081C219.137 227.341 218.667 227.577 218.186 227.786C217.68 227.567 217.18 227.32 216.681 227.081C214.306 225.784 212.199 224.047 210.472 221.96C207.695 218.377 205.336 214.487 203.441 210.365C201.962 207.271 200.256 204.291 198.336 201.45C196.972 199.36 195.155 197.605 193.02 196.316H234.07C230.718 204.85 227.353 213.398 223.973 221.96ZM239.266 192.712L252.942 156.651L266.963 192.719L239.266 192.712Z" fill="black"/>
<path d="M92.1189 267.211V251.229H93.6658V267.211H92.1189Z" fill="black"/>
<path d="M97.6667 267.211V250.587L109.754 263.938V251.243H111.294V267.853L99.2137 254.502V267.197L97.6667 267.211Z" fill="black"/>
<path d="M117.805 267.211V252.506H113.551V251.229H123.606V252.506H119.387V267.211H117.805Z" fill="black"/>
<path d="M125.863 267.211V251.229H134.399V252.506H127.417V257.619H134.146V258.896H127.417V265.949H134.399V267.225L125.863 267.211Z" fill="black"/>
<path d="M137.676 267.211V251.229H141.93C143.025 251.232 144.096 251.55 145.016 252.146C145.987 252.76 146.465 253.895 146.465 255.546C146.465 256.21 146.323 256.866 146.05 257.471C145.708 258.144 145.168 258.696 144.503 259.051C143.561 259.548 142.516 259.816 141.451 259.834L147.077 267.211H145.262L139.792 259.855H139.208V267.211H137.676ZM139.23 258.579H140.826C143.526 258.579 144.876 257.568 144.876 255.546C144.876 254.305 144.538 253.493 143.849 253.099C143.029 252.673 142.113 252.469 141.191 252.506H139.237L139.23 258.579Z" fill="black"/>
<path d="M149.418 267.211V251.229H150.972V267.211H149.418Z" fill="black"/>
<path d="M154.242 259.213C154.238 258.105 154.443 257.007 154.846 255.976C155.24 254.95 155.84 254.016 156.609 253.233C157.379 252.451 158.301 251.836 159.318 251.427C160.437 250.981 161.631 250.758 162.834 250.771C164.038 250.755 165.232 250.978 166.35 251.427C167.38 251.846 168.313 252.472 169.092 253.267C169.853 254.042 170.449 254.963 170.843 255.976C171.247 257.007 171.452 258.105 171.448 259.213C171.453 260.324 171.246 261.425 170.836 262.457C170.438 263.468 169.843 264.389 169.085 265.166C168.304 265.958 167.371 266.585 166.343 267.006C164.08 267.883 161.574 267.883 159.311 267.006C158.283 266.592 157.351 265.968 156.576 265.173C155.819 264.394 155.226 263.471 154.832 262.457C154.434 261.423 154.234 260.322 154.242 259.213ZM155.887 259.213C155.88 260.138 156.042 261.056 156.365 261.921C156.684 262.771 157.161 263.551 157.771 264.221C158.392 264.902 159.149 265.445 159.993 265.814C160.892 266.204 161.862 266.398 162.841 266.386C163.824 266.398 164.799 266.204 165.703 265.814C166.543 265.452 167.298 264.916 167.918 264.242C168.531 263.572 169.009 262.788 169.324 261.935C169.98 260.18 169.98 258.246 169.324 256.491C169.009 255.64 168.531 254.859 167.918 254.191C167.299 253.515 166.544 252.979 165.703 252.619C164.799 252.231 163.824 252.036 162.841 252.047C161.859 252.034 160.886 252.231 159.986 252.626C159.146 252.99 158.391 253.529 157.771 254.206C157.158 254.873 156.68 255.654 156.365 256.505C156.043 257.371 155.881 258.289 155.887 259.213Z" fill="black"/>
<path d="M174.724 267.211V251.229H178.978C180.074 251.232 181.145 251.55 182.065 252.146C183.036 252.76 183.514 253.895 183.514 255.546C183.515 256.211 183.371 256.868 183.092 257.471C182.755 258.146 182.216 258.698 181.552 259.051C180.61 259.548 179.565 259.816 178.5 259.834L184.125 267.211H182.311L176.841 259.855H176.257V267.211H174.724ZM176.278 258.579H177.867C180.568 258.579 181.918 257.568 181.918 255.546C181.918 254.305 181.573 253.493 180.891 253.099C180.071 252.673 179.155 252.469 178.233 252.506H176.278V258.579Z" fill="black"/>
<path d="M192.029 272L200.628 250.425H201.908L193.301 272H192.029Z" fill="black"/>
<path d="M211.921 267.211V251.229H215.879C217.571 251.171 219.248 251.565 220.738 252.372C221.974 253.057 222.983 254.089 223.642 255.341C224.263 256.537 224.584 257.865 224.577 259.213C224.586 260.579 224.265 261.927 223.642 263.142C222.988 264.388 221.98 265.412 220.745 266.083C219.249 266.878 217.572 267.267 215.879 267.211H211.921ZM213.468 265.935H215.718C217.185 265.996 218.642 265.663 219.937 264.968C220.945 264.403 221.752 263.535 222.243 262.486C222.712 261.459 222.952 260.342 222.946 259.213C222.966 258.221 222.776 257.235 222.39 256.322C222.041 255.508 221.512 254.784 220.844 254.206C220.165 253.637 219.385 253.204 218.544 252.929C217.635 252.641 216.686 252.498 215.732 252.506H213.482L213.468 265.935Z" fill="black"/>
<path d="M227.847 267.211V251.229H236.383V252.506H229.422V257.619H236.158V258.896H229.422V265.949H236.404V267.225L227.847 267.211Z" fill="black"/>
<path d="M247.746 253.19L246.508 253.895C246.283 253.234 245.805 252.688 245.179 252.379C244.698 252.158 244.176 252.036 243.647 252.019C243.266 251.987 242.882 252.033 242.519 252.154C242.157 252.275 241.823 252.469 241.537 252.725C241.312 252.948 241.134 253.214 241.014 253.507C240.893 253.8 240.832 254.114 240.834 254.431C240.822 254.977 241.007 255.508 241.354 255.927C241.676 256.317 242.067 256.645 242.507 256.893C242.922 257.133 243.576 257.45 244.455 257.852C245.203 258.195 245.927 258.588 246.621 259.03C247.188 259.39 247.669 259.871 248.027 260.44C248.426 261.116 248.624 261.892 248.597 262.676C248.599 263.504 248.393 264.319 247.999 265.046C247.587 265.805 246.974 266.435 246.227 266.866C245.39 267.348 244.436 267.592 243.471 267.571C242.246 267.644 241.041 267.242 240.103 266.45C239.341 265.768 238.736 264.928 238.331 263.988L239.786 263.283C240.058 264.084 240.516 264.809 241.122 265.399C241.453 265.714 241.844 265.959 242.272 266.119C242.7 266.279 243.155 266.351 243.611 266.33C244.201 266.335 244.782 266.19 245.299 265.906C245.809 265.619 246.228 265.194 246.508 264.679C246.818 264.109 246.973 263.467 246.958 262.817C246.97 262.393 246.896 261.971 246.74 261.576C246.589 261.227 246.369 260.913 246.094 260.652C245.771 260.359 245.418 260.104 245.039 259.89C244.624 259.651 244.076 259.368 243.386 259.051C242.261 258.555 241.218 257.889 240.293 257.076C239.944 256.743 239.669 256.34 239.487 255.892C239.306 255.445 239.221 254.964 239.238 254.481C239.249 253.92 239.368 253.367 239.589 252.852C239.869 252.228 240.333 251.706 240.918 251.356C241.736 250.888 242.671 250.666 243.611 250.715C245.594 250.771 247.001 251.582 247.746 253.19Z" fill="black"/>
<path d="M251.515 267.211V251.229H253.069V267.211H251.515Z" fill="black"/>
<path d="M264.966 259.446H272.314C272.302 260.4 272.167 261.348 271.913 262.267C271.655 263.222 271.224 264.121 270.64 264.919C270.017 265.758 269.199 266.431 268.257 266.88C267.127 267.408 265.889 267.664 264.643 267.627C263.07 267.669 261.515 267.284 260.142 266.513C258.916 265.801 257.922 264.748 257.281 263.48C256.624 262.168 256.291 260.716 256.31 259.248C256.292 257.759 256.615 256.284 257.253 254.939C257.858 253.672 258.812 252.605 260.002 251.864C261.271 251.089 262.735 250.695 264.221 250.728C265.604 250.715 266.97 251.032 268.208 251.652C269.442 252.29 270.492 253.238 271.252 254.403L270.064 255.271C269.452 254.263 268.59 253.433 267.562 252.86C266.534 252.288 265.375 251.993 264.2 252.005C263.268 251.991 262.345 252.197 261.507 252.605C260.737 252.993 260.064 253.55 259.538 254.234C259.004 254.932 258.599 255.72 258.342 256.561C258.072 257.431 257.935 258.337 257.935 259.248C257.921 260.269 258.097 261.283 258.455 262.239C258.749 263.061 259.215 263.81 259.821 264.436C260.427 265.063 261.16 265.552 261.971 265.871C262.791 266.189 263.664 266.349 264.544 266.344C265.618 266.369 266.681 266.127 267.638 265.638C268.54 265.167 269.296 264.457 269.825 263.586C270.351 262.722 270.628 261.728 270.626 260.715H264.889L264.966 259.446Z" fill="black"/>
<path d="M275.612 267.211V250.587L287.699 263.938V251.243H289.253V267.853L277.166 254.495V267.19L275.612 267.211Z" fill="black"/>
<path d="M183.014 196.316H182.853V196.246L183.014 196.316Z" fill="black"/>
<path d="M268.229 196.323H242.353L268.208 196.252L268.229 196.323Z" fill="black"/>
<path d="M25.967 119.165L42.9831 136.148L42.8003 136.367L23.0981 122.607L25.967 119.165Z" fill="black"/>
<path d="M203.448 53.8978C203.898 53.9331 204.376 53.9613 204.854 53.9542V53.8978H203.448ZM179.541 87.4764V87.5751C179.541 87.5399 179.597 87.5117 179.618 87.4764H179.541ZM204.629 10.0362H179.499V10.2125H207.716C206.68 10.0933 205.637 10.0344 204.594 10.0362H204.629Z" fill="black"/>
<path d="M203.448 53.8979C203.898 53.9332 204.376 53.9614 204.854 53.9544V53.8979H203.448ZM179.541 87.4765V87.5753C179.541 87.54 179.597 87.5118 179.618 87.4765H179.541Z" fill="black"/>
<path d="M243.626 38.2758C240.433 30.9096 235.89 24.2107 230.231 18.5278C218.473 6.79359 202.602 0.14302 186.017 2.68118e-05C177.368 -0.18291 168.778 1.46821 160.809 4.84533C157.396 6.30803 154.104 8.04148 150.965 10.0292L149.264 11.1294L149.116 11.2423C145.988 13.3742 143.056 15.7817 140.355 18.4361C138.906 19.8467 137.537 21.3278 136.248 22.8795C135.32 23.9938 134.427 25.1364 133.583 26.3071C130.827 30.1138 128.49 34.2097 126.615 38.5227C123.267 46.2571 121.562 54.6064 121.609 63.0384C121.592 68.2501 122.237 73.4429 123.528 78.4911C123.915 80.0498 124.386 81.5944 124.935 83.1107C125.314 84.2039 125.715 85.276 126.172 86.3551C126.32 86.7218 126.475 87.1027 126.636 87.4624C127.48 89.3807 128.415 91.2497 129.449 93.0553C129.674 93.4714 129.913 93.8804 130.152 94.2966C130.518 94.9266 130.897 95.5473 131.291 96.1585C131.601 96.6734 131.938 97.1741 132.276 97.6749C134.599 101.183 137.276 104.442 140.263 107.401C146.114 113.121 152.999 117.669 160.549 120.801C168.447 124.12 176.949 125.747 185.511 125.576C193.884 125.509 202.161 123.773 209.861 120.47C214.519 118.458 218.933 115.919 223.016 112.902C225.436 111.109 227.726 109.148 229.872 107.034C234.519 102.482 238.422 97.2243 241.439 91.4543C242.142 90.0437 242.845 88.5978 243.548 87.1168C246.908 79.3537 248.613 70.9721 248.555 62.5094C248.612 54.1754 246.933 45.9214 243.626 38.2758ZM219.318 18.1117C220.93 20.0993 222.151 22.3752 222.918 24.819C223.727 27.3006 224.138 29.8956 224.134 32.5066C224.112 35.0192 223.68 37.5113 222.855 39.8839C222.027 42.3505 220.809 44.6676 219.248 46.7463C217.734 48.7703 215.846 50.4826 213.686 51.7891C211.535 53.1038 209.06 53.7857 206.542 53.7568H184.744V12.8997H212.364C212.708 13.0407 213.067 13.203 213.369 13.3652C215.661 14.5133 217.687 16.1302 219.318 18.1117ZM204.854 53.8979V53.9543C204.376 53.9543 203.898 53.9543 203.448 53.8979H204.854ZM202.316 55.2591L184.737 76.3682V55.2591H202.316ZM162.187 6.84129C169.24 3.63686 176.904 2.01229 184.646 2.08062C192.752 1.98841 200.768 3.79735 208.054 7.3632C209.706 8.18838 211.323 9.0841 212.87 10.0362L213.165 10.2126H179.499V10.0362H156.175C158.117 8.85742 160.124 7.7907 162.187 6.84129ZM158.58 112.867C165.574 104.403 172.549 95.9728 179.506 87.5752V87.4765H179.583C179.583 87.5117 179.527 87.5399 179.506 87.5752V112.867H158.58ZM179.499 53.7497H159.74C157.228 53.7725 154.76 53.0936 152.611 51.7891C152.224 51.5493 151.844 51.3024 151.471 51.0415L153.412 48.6999C162.075 38.2758 170.77 27.7906 179.499 17.2442V53.7497ZM143.364 24.8331C144.137 22.3892 145.364 20.1136 146.978 18.1258C148.603 16.146 150.625 14.5312 152.913 13.3863C153.242 13.2127 153.58 13.0573 153.925 12.9208H178.121L148.56 48.5095C148.037 47.963 147.546 47.3861 147.091 46.7815C145.535 44.6991 144.318 42.383 143.484 39.9191C142.655 37.5427 142.222 35.0454 142.204 32.5277C142.189 29.9105 142.583 27.307 143.371 24.8119L143.364 24.8331ZM128.697 72.2987C128.223 69.0715 127.988 65.8137 127.993 62.5517C127.939 54.5057 129.369 46.5191 132.212 38.9952C132.669 37.7751 133.176 36.5831 133.71 35.4053C133.991 34.7776 134.28 34.1569 134.589 33.5363C135.398 31.9071 136.276 30.3202 137.219 28.7968C136.999 30.0756 136.89 31.3712 136.895 32.6688C136.87 35.2682 137.33 37.8493 138.252 40.2788C139.127 42.6129 140.395 44.779 142 46.6828C143.375 48.2208 144.95 49.5659 146.683 50.6818L146.17 51.3024L144.869 52.847L128.697 72.2987ZM153.876 113.523L153.806 113.607C153.468 113.386 153.131 113.151 152.793 112.902C150.653 111.365 148.629 109.67 146.739 107.831C146.625 107.732 146.517 107.626 146.416 107.514C146.317 107.429 146.226 107.337 146.142 107.253C145.895 106.999 145.642 106.752 145.396 106.491C145.15 106.23 144.777 105.863 144.482 105.532C140.851 101.594 137.758 97.1899 135.285 92.4346C134.983 91.8563 134.687 91.2709 134.406 90.6855C134.125 90.1001 133.808 89.4371 133.527 88.8024C133.33 88.3792 133.147 87.949 132.965 87.5117C132.943 87.4747 132.929 87.4341 132.922 87.3918C132.768 87.0674 132.641 86.7289 132.508 86.4044C132.465 86.3157 132.43 86.2237 132.402 86.1294C131.265 83.2967 130.348 80.3798 129.66 77.405C136.073 69.6422 142.469 61.9193 148.849 54.2364C149.179 53.8485 149.503 53.4535 149.826 53.0656C149.903 52.9739 149.967 52.8893 150.044 52.8047C150.747 53.1503 151.45 53.4747 152.153 53.7709C153.896 54.4996 155.733 54.9746 157.61 55.1815C158.756 55.2708 159.906 55.2968 161.055 55.2591H179.499V82.6805L179.063 83.2024L177.657 84.881L154.375 112.867L153.876 113.523ZM208.018 118.855C200.858 121.967 193.132 123.559 185.328 123.53C177.524 123.501 169.81 121.851 162.673 118.685C160.665 117.761 158.712 116.723 156.822 115.575H214.213C212.226 116.783 210.17 117.871 208.054 118.833L208.018 118.855ZM236.257 90.7913C233.612 96.4581 230.082 101.665 225.801 106.216C223.786 108.365 221.596 110.342 219.255 112.126C218.917 112.38 218.594 112.641 218.256 112.888H184.758V81.2276C191.565 73.051 198.397 64.8039 205.255 56.4863C205.593 56.0701 205.958 55.6681 206.275 55.2591H208.644C212.499 55.2275 216.316 56.0234 219.838 57.5936C223.195 59.0897 226.235 61.2155 228.796 63.8565C234.012 69.3993 236.911 76.737 236.897 84.3591C236.9 86.5106 236.697 88.6574 236.292 90.7701L236.257 90.7913ZM240.996 76.3471C240.62 75.0701 240.15 73.8229 239.59 72.6161C237.937 69.0616 235.614 65.8618 232.748 63.1935C229.859 60.5054 226.529 58.3388 222.904 56.7895C219.191 55.1805 215.216 54.2628 211.175 54.0812C213.729 53.5913 216.19 52.7012 218.467 51.4435C220.67 50.2273 222.631 48.6161 224.254 46.6899C225.854 44.7808 227.123 42.6161 228.009 40.2859C229.997 34.8429 229.782 28.8358 227.411 23.5495C227.022 22.7357 226.588 21.9446 226.11 21.1797C226.149 21.232 226.191 21.2814 226.237 21.3278C231.379 27.2406 235.389 34.0551 238.064 41.4284C242.185 52.5846 243.201 64.6557 241.003 76.3471H240.996Z" fill="black"/>
<path d="M180.504 10.0361C181.09 10.1014 181.68 10.1273 182.269 10.1137V10.0361H180.504ZM179.506 10.0361V10.2124H180.364L180.504 10.0361H179.506ZM184.758 86.369V87.4763V86.369ZM184.329 10.0502C183.886 10.0502 183.436 10.0502 182.986 10.0996C182.747 10.0996 182.508 10.0996 182.283 10.0996V10.1983H185.342L185.483 10.022C185.124 10.0361 184.709 10.0361 184.329 10.0502Z" fill="black"/>
<path d="M179.499 10.0361V10.2125H184.322V10.0361H179.499Z" fill="black"/>
</svg>
