<svg width="85" height="85" viewBox="0 0 85 85" fill="none" xmlns="http://www.w3.org/2000/svg">
<circle cx="42.5" cy="42.5" r="42.5" fill="white"/>
<path d="M24.8989 26.8651C27.0736 24.6801 29.6634 22.9478 32.5174 21.7692C35.3713 20.5906 38.4324 19.9892 41.5221 20.0001C54.4691 20.0001 65.0206 30.5012 65.0324 43.3928C65.0324 47.5218 63.9473 51.5386 61.8987 55.095L65.2222 67.2222L52.7585 63.9698C49.3105 65.8378 45.4476 66.8169 41.5221 66.8179H41.5103C28.5603 66.8179 18.0118 56.3169 18 43.4134C17.997 40.3382 18.6053 37.2928 19.7899 34.4527C20.9744 31.6126 22.7118 29.0338 24.9019 26.8651H24.8989ZM41.5221 62.8571C45.0235 62.8583 48.4605 61.9203 51.4718 60.1418L52.1833 59.7168L59.5773 61.647L57.6028 54.4663L58.0653 53.7255C60.0226 50.6276 61.0578 47.0408 61.0508 43.381C61.0508 32.6793 52.2841 23.9491 41.5103 23.9491C38.9436 23.9445 36.4014 24.4457 34.0302 25.4239C31.659 26.402 29.5058 27.8377 27.6946 29.6482C25.8772 31.4516 24.4363 33.5954 23.4553 35.956C22.4743 38.3165 21.9724 40.847 21.9786 43.4016C21.9905 54.1417 30.7572 62.8571 41.5221 62.8571ZM30.8046 48.295C31.3887 48.0028 34.2734 46.5891 34.8159 46.3884C35.3555 46.1966 35.7498 46.0962 36.1352 46.6806C36.5295 47.262 37.6561 48.5872 37.9941 48.9679C38.3321 49.3605 38.6819 49.4047 39.2689 49.1155C39.853 48.8204 41.7474 48.2065 43.9888 46.2084C45.738 44.6589 46.909 42.7405 47.2589 42.1591C47.5969 41.5747 47.2915 41.2619 46.998 40.9697C46.7401 40.71 46.4139 40.285 46.1204 39.9485C45.824 39.6121 45.7261 39.3641 45.5334 38.9746C45.3407 38.5791 45.4326 38.2426 45.5779 37.9504C45.7261 37.6582 46.8972 34.7747 47.3923 33.6119C47.8666 32.4638 48.3499 32.6232 48.7116 32.6084C49.0496 32.5878 49.4439 32.5878 49.8382 32.5878C50.136 32.5951 50.429 32.6637 50.6989 32.7892C50.9688 32.9146 51.2097 33.0942 51.4065 33.3168C51.9461 33.9011 53.4552 35.3148 53.4552 38.1983C53.4552 41.0818 51.3502 43.8532 51.0537 44.2457C50.7632 44.6383 46.9209 50.5381 41.0241 53.0762C39.6306 53.6813 38.5337 54.0384 37.6769 54.3099C36.2686 54.7585 34.9968 54.6907 33.9828 54.546C32.8562 54.3749 30.5111 53.1294 30.016 51.7629C29.5298 50.3934 29.5298 49.2247 29.678 48.9797C29.8233 48.7318 30.2176 48.5872 30.8046 48.295Z" fill="#383638"/>
</svg>
