<svg width="393" height="49" viewBox="0 0 393 49" fill="none" xmlns="http://www.w3.org/2000/svg">
<path d="M1.6 14V0.359999H11.42V14H9.92V1.6H3.1V14H1.6ZM19.1273 4.32C20.0207 4.32 20.8207 4.53333 21.5273 4.96C22.234 5.38667 22.7873 5.98 23.1873 6.74C23.5873 7.5 23.7873 8.36667 23.7873 9.34C23.7873 10.3 23.5873 11.16 23.1873 11.92C22.8007 12.6667 22.254 13.2533 21.5473 13.68C20.854 14.1067 20.0607 14.32 19.1673 14.32C18.4873 14.32 17.8607 14.1733 17.2873 13.88C16.7273 13.5733 16.254 13.1467 15.8673 12.6V18H14.5073V4.64H15.8673V6.02C16.254 5.48667 16.7273 5.07333 17.2873 4.78C17.8473 4.47333 18.4607 4.32 19.1273 4.32ZM19.1673 13.08C19.794 13.08 20.354 12.92 20.8473 12.6C21.3407 12.28 21.7273 11.84 22.0073 11.28C22.2873 10.7067 22.4273 10.06 22.4273 9.34C22.4273 8.60667 22.2873 7.95333 22.0073 7.38C21.7273 6.80667 21.3407 6.36 20.8473 6.04C20.354 5.72 19.794 5.56 19.1673 5.56C18.5273 5.56 17.954 5.72 17.4473 6.04C16.954 6.36 16.5673 6.80667 16.2873 7.38C16.0073 7.95333 15.8673 8.6 15.8673 9.32C15.8673 10.04 16.0073 10.6867 16.2873 11.26C16.5673 11.8333 16.954 12.28 17.4473 12.6C17.954 12.92 18.5273 13.08 19.1673 13.08ZM29.9783 14.32C29.0849 14.32 28.2849 14.1067 27.5783 13.68C26.8716 13.2533 26.3183 12.66 25.9183 11.9C25.5183 11.1267 25.3183 10.26 25.3183 9.3C25.3183 8.34 25.5116 7.48667 25.8983 6.74C26.2983 5.98 26.8449 5.38667 27.5383 4.96C28.2449 4.53333 29.0449 4.32 29.9383 4.32C30.8316 4.32 31.6316 4.53333 32.3383 4.96C33.0449 5.38667 33.5983 5.98 33.9983 6.74C34.3983 7.5 34.5983 8.36 34.5983 9.32C34.5983 10.28 34.3983 11.14 33.9983 11.9C33.6116 12.66 33.0649 13.2533 32.3583 13.68C31.6649 14.1067 30.8716 14.32 29.9783 14.32ZM29.9383 13.08C30.5783 13.08 31.1449 12.92 31.6383 12.6C32.1449 12.28 32.5383 11.8333 32.8183 11.26C33.0983 10.6867 33.2383 10.04 33.2383 9.32C33.2383 8.6 33.0983 7.95333 32.8183 7.38C32.5383 6.80667 32.1449 6.36 31.6383 6.04C31.1449 5.72 30.5783 5.56 29.9383 5.56C29.3116 5.56 28.7516 5.72 28.2583 6.04C27.7649 6.36 27.3783 6.80667 27.0983 7.38C26.8183 7.94 26.6783 8.58 26.6783 9.3C26.6783 10.0333 26.8183 10.6867 27.0983 11.26C27.3783 11.8333 27.7649 12.28 28.2583 12.6C28.7516 12.92 29.3116 13.08 29.9383 13.08ZM40.7633 4.32C41.6033 4.32 42.3633 4.52667 43.0433 4.94C43.7233 5.35333 44.2566 5.92 44.6433 6.64C45.0299 7.34667 45.2233 8.14 45.2233 9.02C45.2233 9.27333 45.2166 9.46667 45.2033 9.6H37.5033C37.5566 10.56 37.8699 11.38 38.4433 12.06C39.0166 12.74 39.7966 13.08 40.7833 13.08C41.5833 13.08 42.2433 12.9333 42.7633 12.64C43.2966 12.3333 43.7233 11.9133 44.0433 11.38L45.1233 12.1C44.6833 12.7933 44.1033 13.34 43.3833 13.74C42.6633 14.1267 41.8099 14.32 40.8233 14.32C39.9166 14.32 39.1099 14.1067 38.4033 13.68C37.6966 13.2533 37.1433 12.66 36.7433 11.9C36.3433 11.14 36.1433 10.28 36.1433 9.32C36.1433 8.36 36.3366 7.5 36.7233 6.74C37.1233 5.98 37.6699 5.38667 38.3633 4.96C39.0699 4.53333 39.8699 4.32 40.7633 4.32ZM43.8633 8.48C43.7299 7.50667 43.4033 6.78 42.8833 6.3C42.3633 5.80667 41.6566 5.56 40.7633 5.56C39.8966 5.56 39.1833 5.84 38.6233 6.4C38.0766 6.94667 37.7299 7.64 37.5833 8.48H43.8633ZM55.1311 14H53.5911L50.2911 9.76H48.7911V14H47.4311V4.64H48.7911V8.52H50.3111L53.2311 4.64H54.7511L51.3511 9.08L55.1311 14ZM55.9289 4.64H64.6489V5.88H60.8289V11.36C60.8289 11.8533 60.9756 12.2467 61.2689 12.54C61.5756 12.82 61.9822 12.96 62.4889 12.96H63.6889V14.2H62.4889C61.5556 14.2 60.8156 13.94 60.2689 13.42C59.7356 12.9 59.4689 12.18 59.4689 11.26V5.88H55.9289V4.64ZM71.2406 4.32C72.134 4.32 72.934 4.53333 73.6406 4.96C74.3473 5.38667 74.9006 5.98 75.3006 6.74C75.7006 7.5 75.9006 8.36667 75.9006 9.34C75.9006 10.3 75.7006 11.16 75.3006 11.92C74.914 12.6667 74.3673 13.2533 73.6606 13.68C72.9673 14.1067 72.174 14.32 71.2806 14.32C70.6006 14.32 69.974 14.1733 69.4006 13.88C68.8406 13.5733 68.3673 13.1467 67.9806 12.6V18H66.6206V4.64H67.9806V6.02C68.3673 5.48667 68.8406 5.07333 69.4006 4.78C69.9606 4.47333 70.574 4.32 71.2406 4.32ZM71.2806 13.08C71.9073 13.08 72.4673 12.92 72.9606 12.6C73.454 12.28 73.8406 11.84 74.1206 11.28C74.4006 10.7067 74.5406 10.06 74.5406 9.34C74.5406 8.60667 74.4006 7.95333 74.1206 7.38C73.8406 6.80667 73.454 6.36 72.9606 6.04C72.4673 5.72 71.9073 5.56 71.2806 5.56C70.6406 5.56 70.0673 5.72 69.5606 6.04C69.0673 6.36 68.6806 6.80667 68.4006 7.38C68.1206 7.95333 67.9806 8.6 67.9806 9.32C67.9806 10.04 68.1206 10.6867 68.4006 11.26C68.6806 11.8333 69.0673 12.28 69.5606 12.6C70.0673 12.92 70.6406 13.08 71.2806 13.08ZM85.0716 4.64H86.4316V14H85.0716V6.54L79.5116 14H78.1516V4.64H79.5116V12.2L85.0716 4.64ZM93.9258 4.32C94.8191 4.32 95.6191 4.53333 96.3258 4.96C97.0324 5.38667 97.5858 5.98 97.9858 6.74C98.3858 7.5 98.5858 8.36667 98.5858 9.34C98.5858 10.3 98.3858 11.16 97.9858 11.92C97.5991 12.6667 97.0524 13.2533 96.3458 13.68C95.6524 14.1067 94.8591 14.32 93.9658 14.32C93.2858 14.32 92.6591 14.1733 92.0858 13.88C91.5258 13.5733 91.0524 13.1467 90.6658 12.6V18H89.3058V4.64H90.6658V6.02C91.0524 5.48667 91.5258 5.07333 92.0858 4.78C92.6458 4.47333 93.2591 4.32 93.9258 4.32ZM93.9658 13.08C94.5924 13.08 95.1524 12.92 95.6458 12.6C96.1391 12.28 96.5258 11.84 96.8058 11.28C97.0858 10.7067 97.2258 10.06 97.2258 9.34C97.2258 8.60667 97.0858 7.95333 96.8058 7.38C96.5258 6.80667 96.1391 6.36 95.6458 6.04C95.1524 5.72 94.5924 5.56 93.9658 5.56C93.3258 5.56 92.7524 5.72 92.2458 6.04C91.7524 6.36 91.3658 6.80667 91.0858 7.38C90.8058 7.95333 90.6658 8.6 90.6658 9.32C90.6658 10.04 90.8058 10.6867 91.0858 11.26C91.3658 11.8333 91.7524 12.28 92.2458 12.6C92.7524 12.92 93.3258 13.08 93.9658 13.08ZM107.137 4.64H108.417L103.357 18H101.997L103.477 14.18L99.6367 4.64H101.057L104.157 12.4L107.137 4.64ZM113.921 4.32C114.761 4.32 115.521 4.52667 116.201 4.94C116.881 5.35333 117.414 5.92 117.801 6.64C118.188 7.34667 118.381 8.14 118.381 9.02C118.381 9.27333 118.374 9.46667 118.361 9.6H110.661C110.714 10.56 111.028 11.38 111.601 12.06C112.174 12.74 112.954 13.08 113.941 13.08C114.741 13.08 115.401 12.9333 115.921 12.64C116.454 12.3333 116.881 11.9133 117.201 11.38L118.281 12.1C117.841 12.7933 117.261 13.34 116.541 13.74C115.821 14.1267 114.968 14.32 113.981 14.32C113.074 14.32 112.268 14.1067 111.561 13.68C110.854 13.2533 110.301 12.66 109.901 11.9C109.501 11.14 109.301 10.28 109.301 9.32C109.301 8.36 109.494 7.5 109.881 6.74C110.281 5.98 110.828 5.38667 111.521 4.96C112.228 4.53333 113.028 4.32 113.921 4.32ZM117.021 8.48C116.888 7.50667 116.561 6.78 116.041 6.3C115.521 5.80667 114.814 5.56 113.921 5.56C113.054 5.56 112.341 5.84 111.781 6.4C111.234 6.94667 110.888 7.64 110.741 8.48H117.021ZM129.129 4.64H130.569V14H129.209V6.72L126.009 12.9H125.129L122.089 6.86V14H120.729V4.64H122.269L125.649 11.32L129.129 4.64ZM145.779 14H144.239L140.939 9.76H139.439V14H138.079V4.64H139.439V8.52H140.959L143.879 4.64H145.399L141.999 9.08L145.779 14ZM156.237 4.64V14H154.877V12.62C154.49 13.1533 154.017 13.5733 153.457 13.88C152.897 14.1733 152.283 14.32 151.617 14.32C150.723 14.32 149.923 14.1067 149.217 13.68C148.51 13.2533 147.957 12.66 147.557 11.9C147.157 11.14 146.957 10.2733 146.957 9.3C146.957 8.34 147.15 7.48667 147.537 6.74C147.937 5.98 148.483 5.38667 149.177 4.96C149.883 4.53333 150.683 4.32 151.577 4.32C152.257 4.32 152.877 4.47333 153.437 4.78C154.01 5.07333 154.49 5.49333 154.877 6.04V4.64H156.237ZM151.577 13.08C152.217 13.08 152.783 12.92 153.277 12.6C153.783 12.28 154.177 11.8333 154.457 11.26C154.737 10.6867 154.877 10.04 154.877 9.32C154.877 8.6 154.737 7.95333 154.457 7.38C154.177 6.80667 153.783 6.36 153.277 6.04C152.783 5.72 152.217 5.56 151.577 5.56C150.95 5.56 150.39 5.72 149.897 6.04C149.403 6.36 149.017 6.80667 148.737 7.38C148.457 7.94 148.317 8.58 148.317 9.3C148.317 10.0333 148.457 10.6867 148.737 11.26C149.017 11.8333 149.403 12.28 149.897 12.6C150.39 12.92 150.95 13.08 151.577 13.08ZM157.988 14L161.568 9.08L158.368 4.64H159.888L162.608 8.52H163.928V4.64H165.288V8.52H166.608L169.328 4.64H170.848L167.648 9.08L171.228 14H169.688L166.588 9.76H165.288V14H163.928V9.76H162.628L159.528 14H157.988ZM181.895 12.76V16.44H180.615V14H173.515V16.44H172.235V12.76H172.735C173.935 12.76 174.535 10.78 174.535 6.82V4.64H180.755V12.76H181.895ZM179.395 12.76V5.88H175.815V7.2C175.815 9.90667 175.428 11.76 174.655 12.76H179.395ZM188.174 14.32C187.28 14.32 186.48 14.1067 185.774 13.68C185.067 13.2533 184.514 12.66 184.114 11.9C183.714 11.1267 183.514 10.26 183.514 9.3C183.514 8.34 183.707 7.48667 184.094 6.74C184.494 5.98 185.04 5.38667 185.734 4.96C186.44 4.53333 187.24 4.32 188.134 4.32C189.027 4.32 189.827 4.53333 190.534 4.96C191.24 5.38667 191.794 5.98 192.194 6.74C192.594 7.5 192.794 8.36 192.794 9.32C192.794 10.28 192.594 11.14 192.194 11.9C191.807 12.66 191.26 13.2533 190.554 13.68C189.86 14.1067 189.067 14.32 188.174 14.32ZM188.134 13.08C188.774 13.08 189.34 12.92 189.834 12.6C190.34 12.28 190.734 11.8333 191.014 11.26C191.294 10.6867 191.434 10.04 191.434 9.32C191.434 8.6 191.294 7.95333 191.014 7.38C190.734 6.80667 190.34 6.36 189.834 6.04C189.34 5.72 188.774 5.56 188.134 5.56C187.507 5.56 186.947 5.72 186.454 6.04C185.96 6.36 185.574 6.80667 185.294 7.38C185.014 7.94 184.874 8.58 184.874 9.3C184.874 10.0333 185.014 10.6867 185.294 11.26C185.574 11.8333 185.96 12.28 186.454 12.6C186.947 12.92 187.507 13.08 188.134 13.08ZM198.959 4.32C199.799 4.32 200.559 4.52667 201.239 4.94C201.919 5.35333 202.452 5.92 202.839 6.64C203.225 7.34667 203.419 8.14 203.419 9.02C203.419 9.27333 203.412 9.46667 203.399 9.6H195.699C195.752 10.56 196.065 11.38 196.639 12.06C197.212 12.74 197.992 13.08 198.979 13.08C199.779 13.08 200.439 12.9333 200.959 12.64C201.492 12.3333 201.919 11.9133 202.239 11.38L203.319 12.1C202.879 12.7933 202.299 13.34 201.579 13.74C200.859 14.1267 200.005 14.32 199.019 14.32C198.112 14.32 197.305 14.1067 196.599 13.68C195.892 13.2533 195.339 12.66 194.939 11.9C194.539 11.14 194.339 10.28 194.339 9.32C194.339 8.36 194.532 7.5 194.919 6.74C195.319 5.98 195.865 5.38667 196.559 4.96C197.265 4.53333 198.065 4.32 198.959 4.32ZM202.059 8.48C201.925 7.50667 201.599 6.78 201.079 6.3C200.559 5.80667 199.852 5.56 198.959 5.56C198.092 5.56 197.379 5.84 196.819 6.4C196.272 6.94667 195.925 7.64 195.779 8.48H202.059ZM214.92 4.32C215.813 4.32 216.613 4.53333 217.32 4.96C218.026 5.38667 218.58 5.98 218.98 6.74C219.38 7.5 219.58 8.36667 219.58 9.34C219.58 10.3 219.38 11.16 218.98 11.92C218.593 12.6667 218.046 13.2533 217.34 13.68C216.646 14.1067 215.853 14.32 214.96 14.32C214.28 14.32 213.653 14.1733 213.08 13.88C212.52 13.5733 212.046 13.1467 211.66 12.6V18H210.3V4.64H211.66V6.02C212.046 5.48667 212.52 5.07333 213.08 4.78C213.64 4.47333 214.253 4.32 214.92 4.32ZM214.96 13.08C215.586 13.08 216.146 12.92 216.64 12.6C217.133 12.28 217.52 11.84 217.8 11.28C218.08 10.7067 218.22 10.06 218.22 9.34C218.22 8.60667 218.08 7.95333 217.8 7.38C217.52 6.80667 217.133 6.36 216.64 6.04C216.146 5.72 215.586 5.56 214.96 5.56C214.32 5.56 213.746 5.72 213.24 6.04C212.746 6.36 212.36 6.80667 212.08 7.38C211.8 7.95333 211.66 8.6 211.66 9.32C211.66 10.04 211.8 10.6867 212.08 11.26C212.36 11.8333 212.746 12.28 213.24 12.6C213.746 12.92 214.32 13.08 214.96 13.08ZM225.73 4.32C226.57 4.32 227.33 4.52667 228.01 4.94C228.69 5.35333 229.224 5.92 229.61 6.64C229.997 7.34667 230.19 8.14 230.19 9.02C230.19 9.27333 230.184 9.46667 230.17 9.6H222.47C222.524 10.56 222.837 11.38 223.41 12.06C223.984 12.74 224.764 13.08 225.75 13.08C226.55 13.08 227.21 12.9333 227.73 12.64C228.264 12.3333 228.69 11.9133 229.01 11.38L230.09 12.1C229.65 12.7933 229.07 13.34 228.35 13.74C227.63 14.1267 226.777 14.32 225.79 14.32C224.884 14.32 224.077 14.1067 223.37 13.68C222.664 13.2533 222.11 12.66 221.71 11.9C221.31 11.14 221.11 10.28 221.11 9.32C221.11 8.36 221.304 7.5 221.69 6.74C222.09 5.98 222.637 5.38667 223.33 4.96C224.037 4.53333 224.837 4.32 225.73 4.32ZM228.83 8.48C228.697 7.50667 228.37 6.78 227.85 6.3C227.33 5.80667 226.624 5.56 225.73 5.56C224.864 5.56 224.15 5.84 223.59 6.4C223.044 6.94667 222.697 7.64 222.55 8.48H228.83ZM232.398 14V4.64H233.758V12.76H237.358V4.64H238.718V12.76H242.318V4.64H243.678V14H232.398ZM250.427 4.32C251.267 4.32 252.027 4.52667 252.707 4.94C253.387 5.35333 253.921 5.92 254.307 6.64C254.694 7.34667 254.887 8.14 254.887 9.02C254.887 9.27333 254.881 9.46667 254.867 9.6H247.167C247.221 10.56 247.534 11.38 248.107 12.06C248.681 12.74 249.461 13.08 250.447 13.08C251.247 13.08 251.907 12.9333 252.427 12.64C252.961 12.3333 253.387 11.9133 253.707 11.38L254.787 12.1C254.347 12.7933 253.767 13.34 253.047 13.74C252.327 14.1267 251.474 14.32 250.487 14.32C249.581 14.32 248.774 14.1067 248.067 13.68C247.361 13.2533 246.807 12.66 246.407 11.9C246.007 11.14 245.807 10.28 245.807 9.32C245.807 8.36 246.001 7.5 246.387 6.74C246.787 5.98 247.334 5.38667 248.027 4.96C248.734 4.53333 249.534 4.32 250.427 4.32ZM253.527 8.48C253.394 7.50667 253.067 6.78 252.547 6.3C252.027 5.80667 251.321 5.56 250.427 5.56C249.561 5.56 248.847 5.84 248.287 6.4C247.741 6.94667 247.394 7.64 247.247 8.48H253.527ZM257.235 14V4.64H258.595V8.52H264.155V4.64H265.515V14H264.155V9.76H258.595V14H257.235ZM275.429 4.64H276.789V14H275.429V6.54L269.869 14H268.509V4.64H269.869V12.2L275.429 4.64ZM283.684 4.32C284.524 4.32 285.284 4.52667 285.964 4.94C286.644 5.35333 287.177 5.92 287.564 6.64C287.95 7.34667 288.144 8.14 288.144 9.02C288.144 9.27333 288.137 9.46667 288.124 9.6H280.424C280.477 10.56 280.79 11.38 281.364 12.06C281.937 12.74 282.717 13.08 283.704 13.08C284.504 13.08 285.164 12.9333 285.684 12.64C286.217 12.3333 286.644 11.9133 286.964 11.38L288.044 12.1C287.604 12.7933 287.024 13.34 286.304 13.74C285.584 14.1267 284.73 14.32 283.744 14.32C282.837 14.32 282.03 14.1067 281.324 13.68C280.617 13.2533 280.064 12.66 279.664 11.9C279.264 11.14 279.064 10.28 279.064 9.32C279.064 8.36 279.257 7.5 279.644 6.74C280.044 5.98 280.59 5.38667 281.284 4.96C281.99 4.53333 282.79 4.32 283.684 4.32ZM286.784 8.48C286.65 7.50667 286.324 6.78 285.804 6.3C285.284 5.80667 284.577 5.56 283.684 5.56C282.817 5.56 282.104 5.84 281.544 6.4C280.997 6.94667 280.65 7.64 280.504 8.48H286.784ZM299.065 14.32C298.158 14.32 297.351 14.1067 296.645 13.68C295.938 13.2533 295.385 12.66 294.985 11.9C294.585 11.14 294.385 10.28 294.385 9.32C294.385 8.36 294.578 7.5 294.965 6.74C295.365 5.98 295.918 5.38667 296.625 4.96C297.331 4.53333 298.131 4.32 299.025 4.32C299.785 4.32 300.445 4.48667 301.005 4.82C301.578 5.14 302.098 5.6 302.565 6.2L301.565 6.98C300.911 6.03333 300.065 5.56 299.025 5.56C298.398 5.56 297.831 5.72 297.325 6.04C296.831 6.36 296.445 6.80667 296.165 7.38C295.885 7.95333 295.745 8.6 295.745 9.32C295.745 10.04 295.885 10.6867 296.165 11.26C296.445 11.8333 296.831 12.28 297.325 12.6C297.831 12.92 298.398 13.08 299.025 13.08C299.665 13.08 300.191 12.9733 300.605 12.76C301.018 12.5333 301.391 12.2067 301.725 11.78L302.785 12.52C302.345 13.0667 301.798 13.5067 301.145 13.84C300.505 14.16 299.811 14.32 299.065 14.32ZM317.929 4.64H319.369V14H318.009V6.72L314.809 12.9H313.929L310.889 6.86V14H309.529V4.64H311.069L314.449 11.32L317.929 4.64ZM322.366 4.64H323.726V7.82H325.926C326.979 7.82 327.786 8.10667 328.346 8.68C328.906 9.25333 329.186 9.99333 329.186 10.9C329.186 11.86 328.886 12.62 328.286 13.18C327.699 13.7267 326.852 14 325.746 14H322.366V4.64ZM330.846 14V4.64H332.206V14H330.846ZM325.806 12.76C326.406 12.76 326.872 12.5933 327.206 12.26C327.539 11.9133 327.706 11.46 327.706 10.9C327.706 10.3267 327.539 9.88 327.206 9.56C326.872 9.22667 326.406 9.06 325.806 9.06H323.726V12.76H325.806ZM339.122 14.32C338.216 14.32 337.409 14.1067 336.702 13.68C335.996 13.2533 335.442 12.66 335.042 11.9C334.642 11.14 334.442 10.28 334.442 9.32C334.442 8.36 334.636 7.5 335.022 6.74C335.422 5.98 335.976 5.38667 336.682 4.96C337.389 4.53333 338.189 4.32 339.082 4.32C339.842 4.32 340.502 4.48667 341.062 4.82C341.636 5.14 342.156 5.6 342.622 6.2L341.622 6.98C340.969 6.03333 340.122 5.56 339.082 5.56C338.456 5.56 337.889 5.72 337.382 6.04C336.889 6.36 336.502 6.80667 336.222 7.38C335.942 7.95333 335.802 8.6 335.802 9.32C335.802 10.04 335.942 10.6867 336.222 11.26C336.502 11.8333 336.889 12.28 337.382 12.6C337.889 12.92 338.456 13.08 339.082 13.08C339.722 13.08 340.249 12.9733 340.662 12.76C341.076 12.5333 341.449 12.2067 341.782 11.78L342.842 12.52C342.402 13.0667 341.856 13.5067 341.202 13.84C340.562 14.16 339.869 14.32 339.122 14.32ZM344.034 12.76H344.654C345.214 12.76 345.654 12.2733 345.974 11.3C346.294 10.3133 346.454 8.82 346.454 6.82V4.64H352.614V14H351.254V5.88H347.734V7.2C347.734 9.28 347.5 10.9333 347.034 12.16C346.58 13.3867 345.767 14 344.594 14H344.034V12.76ZM355.267 4.64H356.627V7.82H359.227C360.28 7.82 361.087 8.10667 361.647 8.68C362.207 9.25333 362.487 9.99333 362.487 10.9C362.487 11.86 362.187 12.62 361.587 13.18C361 13.7267 360.154 14 359.047 14H355.267V4.64ZM359.107 12.76C359.707 12.76 360.174 12.5933 360.507 12.26C360.84 11.9133 361.007 11.46 361.007 10.9C361.007 10.3267 360.84 9.88 360.507 9.56C360.174 9.22667 359.707 9.06 359.107 9.06H356.627V12.76H359.107ZM372.609 4.32C373.502 4.32 374.302 4.53333 375.009 4.96C375.716 5.38667 376.269 5.98 376.669 6.74C377.069 7.5 377.269 8.36 377.269 9.32C377.269 10.28 377.069 11.14 376.669 11.9C376.282 12.66 375.736 13.2533 375.029 13.68C374.336 14.1067 373.542 14.32 372.649 14.32C371.836 14.32 371.102 14.1267 370.449 13.74C369.796 13.3533 369.269 12.82 368.869 12.14C368.482 11.4467 368.262 10.6533 368.209 9.76H366.049V14H364.689V4.64H366.049V8.52H368.229C368.376 7.26667 368.849 6.25333 369.649 5.48C370.462 4.70667 371.449 4.32 372.609 4.32ZM372.609 13.08C373.249 13.08 373.816 12.92 374.309 12.6C374.816 12.28 375.209 11.8333 375.489 11.26C375.769 10.6867 375.909 10.04 375.909 9.32C375.909 8.6 375.769 7.95333 375.489 7.38C375.209 6.80667 374.816 6.36 374.309 6.04C373.816 5.72 373.249 5.56 372.609 5.56C372.022 5.56 371.496 5.72 371.029 6.04C370.562 6.36 370.196 6.80667 369.929 7.38C369.676 7.94 369.549 8.58 369.549 9.3C369.549 10.0333 369.676 10.6867 369.929 11.26C370.196 11.8333 370.562 12.28 371.029 12.6C371.496 12.92 372.022 13.08 372.609 13.08ZM388.131 14.32C387.237 14.32 386.437 14.1067 385.731 13.68C385.024 13.2533 384.471 12.66 384.071 11.9C383.671 11.1267 383.471 10.26 383.471 9.3C383.471 8.34 383.664 7.48667 384.051 6.74C384.451 5.98 384.997 5.38667 385.691 4.96C386.397 4.53333 387.197 4.32 388.091 4.32C388.984 4.32 389.784 4.53333 390.491 4.96C391.197 5.38667 391.751 5.98 392.151 6.74C392.551 7.5 392.751 8.36 392.751 9.32C392.751 10.28 392.551 11.14 392.151 11.9C391.764 12.66 391.217 13.2533 390.511 13.68C389.817 14.1067 389.024 14.32 388.131 14.32ZM388.091 13.08C388.731 13.08 389.297 12.92 389.791 12.6C390.297 12.28 390.691 11.8333 390.971 11.26C391.251 10.6867 391.391 10.04 391.391 9.32C391.391 8.6 391.251 7.95333 390.971 7.38C390.691 6.80667 390.297 6.36 389.791 6.04C389.297 5.72 388.731 5.56 388.091 5.56C387.464 5.56 386.904 5.72 386.411 6.04C385.917 6.36 385.531 6.80667 385.251 7.38C384.971 7.94 384.831 8.58 384.831 9.3C384.831 10.0333 384.971 10.6867 385.251 11.26C385.531 11.8333 385.917 12.28 386.411 12.6C386.904 12.92 387.464 13.08 388.091 13.08ZM0.5 44.76H1.12C1.68 44.76 2.12 44.2733 2.44 43.3C2.76 42.3133 2.92 40.82 2.92 38.82V36.64H9.08V46H7.72V37.88H4.2V39.2C4.2 41.28 3.96667 42.9333 3.5 44.16C3.04667 45.3867 2.23333 46 1.06 46H0.5V44.76ZM19.7934 36.32C20.6868 36.32 21.4868 36.5333 22.1934 36.96C22.9001 37.3867 23.4534 37.98 23.8534 38.74C24.2534 39.5 24.4534 40.36 24.4534 41.32C24.4534 42.28 24.2534 43.14 23.8534 43.9C23.4668 44.66 22.9201 45.2533 22.2134 45.68C21.5201 46.1067 20.7268 46.32 19.8334 46.32C19.0201 46.32 18.2868 46.1267 17.6334 45.74C16.9801 45.3533 16.4534 44.82 16.0534 44.14C15.6668 43.4467 15.4468 42.6533 15.3934 41.76H13.2334V46H11.8734V36.64H13.2334V40.52H15.4134C15.5601 39.2667 16.0334 38.2533 16.8334 37.48C17.6468 36.7067 18.6334 36.32 19.7934 36.32ZM19.7934 45.08C20.4334 45.08 21.0001 44.92 21.4934 44.6C22.0001 44.28 22.3934 43.8333 22.6734 43.26C22.9534 42.6867 23.0934 42.04 23.0934 41.32C23.0934 40.6 22.9534 39.9533 22.6734 39.38C22.3934 38.8067 22.0001 38.36 21.4934 38.04C21.0001 37.72 20.4334 37.56 19.7934 37.56C19.2068 37.56 18.6801 37.72 18.2134 38.04C17.7468 38.36 17.3801 38.8067 17.1134 39.38C16.8601 39.94 16.7334 40.58 16.7334 41.3C16.7334 42.0333 16.8601 42.6867 17.1134 43.26C17.3801 43.8333 17.7468 44.28 18.2134 44.6C18.6801 44.92 19.2068 45.08 19.7934 45.08ZM35.4819 44.76V48.44H34.2019V46H27.1019V48.44H25.8219V44.76H26.3219C27.5219 44.76 28.1219 42.78 28.1219 38.82V36.64H34.3419V44.76H35.4819ZM32.9819 44.76V37.88H29.4019V39.2C29.4019 41.9067 29.0152 43.76 28.2419 44.76H32.9819ZM44.7403 36.64V46H43.3803V42.62H41.1803L38.9803 46H37.3203L39.7003 42.36C39.127 42.12 38.667 41.76 38.3203 41.28C37.9736 40.7867 37.8003 40.2267 37.8003 39.6C37.8003 38.68 38.0936 37.96 38.6803 37.44C39.2803 36.9067 40.1336 36.64 41.2403 36.64H44.7403ZM43.3803 37.88H41.1803C40.5803 37.88 40.1136 38.04 39.7803 38.36C39.447 38.6667 39.2803 39.08 39.2803 39.6C39.2803 40.12 39.467 40.5667 39.8403 40.94C40.227 41.3 40.6736 41.48 41.1803 41.48H43.3803V37.88ZM54.9469 46H53.3869L50.9469 42.1L48.5069 46H46.9869L49.9869 41.2L47.1669 36.64H48.7069L50.9669 40.32L53.3469 36.64H54.8469L51.9069 41.18L54.9469 46ZM68.7583 36.64H70.1183V46H68.7583V38.54L63.1983 46H61.8383V36.64H63.1983V44.2L68.7583 36.64ZM84.6856 36.64H86.0456V46H84.6856V38.54L79.1256 46H77.7656V36.64H79.1256V44.2L84.6856 36.64ZM96.2398 46H94.6798L92.2398 42.1L89.7998 46H88.2798L91.2798 41.2L88.4598 36.64H89.9998L92.2598 40.32L94.6398 36.64H96.1398L93.1998 41.18L96.2398 46ZM111.531 36.64H112.971V46H111.611V38.72L108.411 44.9H107.531L104.491 38.86V46H103.131V36.64H104.671L108.051 43.32L111.531 36.64ZM119.868 36.32C120.708 36.32 121.468 36.5267 122.148 36.94C122.828 37.3533 123.361 37.92 123.748 38.64C124.135 39.3467 124.328 40.14 124.328 41.02C124.328 41.2733 124.321 41.4667 124.308 41.6H116.608C116.661 42.56 116.975 43.38 117.548 44.06C118.121 44.74 118.901 45.08 119.888 45.08C120.688 45.08 121.348 44.9333 121.868 44.64C122.401 44.3333 122.828 43.9133 123.148 43.38L124.228 44.1C123.788 44.7933 123.208 45.34 122.488 45.74C121.768 46.1267 120.915 46.32 119.928 46.32C119.021 46.32 118.215 46.1067 117.508 45.68C116.801 45.2533 116.248 44.66 115.848 43.9C115.448 43.14 115.248 42.28 115.248 41.32C115.248 40.36 115.441 39.5 115.828 38.74C116.228 37.98 116.775 37.3867 117.468 36.96C118.175 36.5333 118.975 36.32 119.868 36.32ZM122.968 40.48C122.835 39.5067 122.508 38.78 121.988 38.3C121.468 37.8067 120.761 37.56 119.868 37.56C119.001 37.56 118.288 37.84 117.728 38.4C117.181 38.9467 116.835 39.64 116.688 40.48H122.968ZM133.936 36.64V46H132.556V42.08C132.236 42.3733 131.836 42.6 131.356 42.76C130.876 42.92 130.356 43 129.796 43C128.769 43 127.942 42.72 127.316 42.16C126.689 41.5867 126.376 40.7267 126.376 39.58V36.64H127.736V39.18C127.736 39.8867 127.816 40.4267 127.976 40.8C128.136 41.16 128.389 41.4133 128.736 41.56C129.096 41.6933 129.596 41.76 130.236 41.76C130.849 41.76 131.389 41.6533 131.856 41.44C132.322 41.2133 132.556 40.9333 132.556 40.6V36.64H133.936ZM135.834 36.64H144.554V37.88H140.734V43.36C140.734 43.8533 140.881 44.2467 141.174 44.54C141.481 44.82 141.888 44.96 142.394 44.96H143.594V46.2H142.394C141.461 46.2 140.721 45.94 140.174 45.42C139.641 44.9 139.374 44.18 139.374 43.26V37.88H135.834V36.64ZM155.206 36.64V46H153.846V44.62C153.459 45.1533 152.986 45.5733 152.426 45.88C151.866 46.1733 151.253 46.32 150.586 46.32C149.693 46.32 148.893 46.1067 148.186 45.68C147.479 45.2533 146.926 44.66 146.526 43.9C146.126 43.14 145.926 42.2733 145.926 41.3C145.926 40.34 146.119 39.4867 146.506 38.74C146.906 37.98 147.453 37.3867 148.146 36.96C148.853 36.5333 149.653 36.32 150.546 36.32C151.226 36.32 151.846 36.4733 152.406 36.78C152.979 37.0733 153.459 37.4933 153.846 38.04V36.64H155.206ZM150.546 45.08C151.186 45.08 151.753 44.92 152.246 44.6C152.753 44.28 153.146 43.8333 153.426 43.26C153.706 42.6867 153.846 42.04 153.846 41.32C153.846 40.6 153.706 39.9533 153.426 39.38C153.146 38.8067 152.753 38.36 152.246 38.04C151.753 37.72 151.186 37.56 150.546 37.56C149.919 37.56 149.359 37.72 148.866 38.04C148.373 38.36 147.986 38.8067 147.706 39.38C147.426 39.94 147.286 40.58 147.286 41.3C147.286 42.0333 147.426 42.6867 147.706 43.26C147.986 43.8333 148.373 44.28 148.866 44.6C149.359 44.92 149.919 45.08 150.546 45.08ZM165.257 46H163.697L161.257 42.1L158.817 46H157.297L160.297 41.2L157.477 36.64H159.017L161.277 40.32L163.657 36.64H165.157L162.217 41.18L165.257 46Z" fill="#464646"/>
</svg>
