<svg width="82" height="83" viewBox="0 0 82 83" fill="none" xmlns="http://www.w3.org/2000/svg">
<ellipse cx="41" cy="41.0082" rx="41" ry="41.0082" fill="white"/>
<path d="M57.4371 21.0956C56.8653 21.1372 56.3041 21.2713 55.7752 21.4928H55.7681C55.2604 21.6941 52.8469 22.7094 49.1775 24.2484L36.0283 29.7863C26.593 33.7585 17.318 37.6701 17.318 37.6701L17.4285 37.6273C17.4285 37.6273 16.789 37.8375 16.121 38.2953C15.7084 38.5579 15.3533 38.9015 15.0772 39.3053C14.7495 39.7862 14.4859 40.5219 14.5838 41.2825C14.7441 42.5685 15.5778 43.3398 16.1763 43.7655C16.7819 44.1966 17.359 44.3979 17.359 44.3979H17.3733L26.0711 47.328C26.4612 48.5803 28.7216 56.0116 29.2649 57.7234C29.5855 58.7458 29.8972 59.3853 30.2873 59.8734C30.4761 60.1228 30.697 60.3312 30.9624 60.4986C31.1004 60.5789 31.2475 60.6422 31.4006 60.6874L31.3115 60.666C31.3383 60.6732 31.3596 60.6945 31.3792 60.7017C31.4505 60.7213 31.4986 60.7284 31.5894 60.7426C32.9663 61.1594 34.0725 60.3044 34.0725 60.3044L34.1348 60.2546L39.2702 55.5788L47.8772 62.1819L48.0731 62.2656C49.8668 63.0529 51.6837 62.6147 52.6438 61.8417C53.611 61.0633 53.9869 60.0675 53.9869 60.0675L54.0492 59.9072L60.7004 25.8337C60.8892 24.9929 60.9373 24.2056 60.7289 23.4415C60.5139 22.6681 60.0178 22.0029 59.3377 21.5765C58.7667 21.2294 58.1045 21.0618 57.4371 21.0956ZM57.2572 24.7471C57.2501 24.8593 57.2715 24.8469 57.2216 25.0624V25.082L50.6328 58.8011C50.6043 58.8492 50.5562 58.9543 50.4244 59.0593C50.2854 59.1698 50.175 59.2393 49.5961 59.0095L39.0689 50.9386L32.7098 56.7348L34.0458 48.2026L51.2455 32.1714C51.9544 31.5123 51.7175 31.3734 51.7175 31.3734C51.7674 30.5647 50.647 31.1365 50.647 31.1365L28.9585 44.5724L28.9514 44.5368L18.556 41.0367V41.0295L18.5293 41.0242C18.5475 41.0181 18.5654 41.011 18.5827 41.0028L18.6397 40.9743L18.695 40.9547C18.695 40.9547 27.977 37.0431 37.4123 33.0709C42.1362 31.0813 46.8957 29.0773 50.5562 27.5312C52.7271 26.6174 54.9002 25.709 57.0755 24.8059C57.2216 24.7489 57.1521 24.7489 57.2572 24.7489V24.7471Z" fill="black"/>
</svg>
